<svg width="100" height="100" viewBox="0 0 100 100" fill="none" xmlns="http://www.w3.org/2000/svg">
<g id="illo.EmptyFav">
<path id="Union" fill-rule="evenodd" clip-rule="evenodd" d="M13.8981 19.5118C14.4295 18.8763 15.3755 18.792 16.011 19.3234L21.4137 23.8414C22.0492 24.3728 22.1335 25.3188 21.6021 25.9543C21.0706 26.5898 20.1247 26.6742 19.4891 26.1427L14.0865 21.6248C13.451 21.0933 13.3666 20.1473 13.8981 19.5118ZM86.4155 79.7819C85.884 80.4174 84.938 80.5018 84.3025 79.9704L78.8999 75.4524C78.2644 74.921 78.18 73.975 78.7115 73.3395C79.2429 72.704 80.1889 72.6196 80.8244 73.151L86.2271 77.669C86.8626 78.2004 86.9469 79.1464 86.4155 79.7819ZM5.58805 35.6252C4.76895 35.5012 3.9486 36.0538 3.75574 36.8595C3.56289 37.6652 4.07056 38.4188 4.88966 38.5427L12.0209 39.6219C12.84 39.7459 13.6604 39.1933 13.8533 38.3876C14.0461 37.5819 13.5384 36.8283 12.7193 36.7044L5.58805 35.6252ZM96.5578 62.4343C96.3649 63.2399 95.5446 63.7926 94.7255 63.6686L87.5942 62.5894C86.7751 62.4654 86.2674 61.7118 86.4603 60.9062C86.6531 60.1005 87.4735 59.5479 88.2926 59.6718L95.4239 60.751C96.243 60.875 96.7507 61.6286 96.5578 62.4343ZM28.4701 8.26264C28.2032 7.4784 28.6019 6.5732 29.3608 6.24083C30.1196 5.90845 30.9511 6.27477 31.2181 7.05901L33.5421 13.8868C33.8091 14.671 33.4103 15.5762 32.6515 15.9086C31.8927 16.241 31.0611 15.8747 30.7942 15.0904L28.4701 8.26264ZM70.9528 93.0529C71.7116 92.7206 72.1104 91.8154 71.8434 91.0311L69.5194 84.2034C69.2524 83.4191 68.4209 83.0528 67.662 83.3852C66.9032 83.7175 66.5045 84.6227 66.7714 85.407L69.0955 92.2348C69.3624 93.019 70.194 93.3853 70.9528 93.0529ZM23.508 45.8492C23.503 45.8989 23.5005 45.9494 23.5005 46.0004V46.493V46.4955V46.4979V46.5004V46.5029V46.5054V46.5078V46.5103V46.5128V46.5152V46.5177V46.5202V46.5227V46.5251V46.5276V46.5301V46.5326V46.535V46.5375V46.54V46.5425V46.545V46.5474V46.5499V46.5524V46.5549V46.5574V46.5599V46.5623V46.5648V46.5673V46.5698V46.5723V46.5748V46.5772V46.5797V46.5822V46.5847V46.5872V46.5897V46.5922V46.5947V46.5972V46.5997V46.6021V46.6046V46.6071V46.6096V46.6121V46.6146V46.6171V46.6196V46.6221V46.6246V46.6271V46.6296V46.6321V46.6346V46.6371V46.6396V46.6421V46.6446V46.6471V46.6496V46.6521V46.6546V46.6571V46.6596V46.6621V46.6646V46.6671V46.6696V46.6721V46.6746V46.6771V46.6796V46.6822V46.6847V46.6872V46.6897V46.6922V46.6947V46.6972V46.6997V46.7022V46.7048V46.7073V46.7098V46.7123V46.7148V46.7173V46.7198V46.7224V46.7249V46.7274V46.7299V46.7324V46.735V46.7375V46.74V46.7425V46.745V46.7476V46.7501V46.7526V46.7551V46.7577V46.7602V46.7627V46.7652V46.7678V46.7703V46.7728V46.7753V46.7779V46.7804V46.7829V46.7855V46.788V46.7905V46.7931V46.7956V46.7981V46.8007V46.8032V46.8057V46.8083V46.8108V46.8133V46.8159V46.8184V46.8209V46.8235V46.826V46.8286V46.8311V46.8336V46.8362V46.8387V46.8413V46.8438V46.8463V46.8489V46.8514V46.854V46.8565V46.8591V46.8616V46.8642V46.8667V46.8693V46.8718V46.8744V46.8769V46.8795V46.882V46.8846V46.8871V46.8897V46.8922V46.8948V46.8973V46.8999V46.9024V46.905V46.9075V46.9101V46.9127V46.9152V46.9178V46.9203V46.9229V46.9254V46.928V46.9306V46.9331V46.9357V46.9382V46.9408V46.9434V46.9459V46.9485V46.9511V46.9536V46.9562V46.9588V46.9613V46.9639V46.9665V46.969V46.9716V46.9742V46.9767V46.9793V46.9819V46.9845V46.987V46.9896V46.9922V46.9948V46.9973V46.9999V47.0025V47.0051V47.0076V47.0102V47.0128V47.0154V47.0179V47.0205V47.0231V47.0257V47.0283V47.0308V47.0334V47.036V47.0386V47.0412V47.0438V47.0463V47.0489V47.0515V47.0541V47.0567V47.0593V47.0619V47.0645V47.067V47.0696V47.0722V47.0748V47.0774V47.08V47.0826V47.0852V47.0878V47.0904V47.093V47.0956V47.0982V47.1007V47.1033V47.1059V47.1085V47.1111V47.1137V47.1163V47.1189V47.1215V47.1241V47.1267V47.1293V47.1319V47.1345V47.1372V47.1398V47.1424V47.145V47.1476V47.1502V47.1528V47.1554V47.158V47.1606V47.1632V47.1658V47.1684V47.171V47.1737V47.1763V47.1789V47.1815V47.1841V47.1867V47.1893V47.192V47.1946V47.1972V47.1998V47.2024V47.205V47.2077V47.2103V47.2129V47.2155V47.2181V47.2208V47.2234V47.226V47.2286V47.2312V47.2339V47.2365V47.2391V47.2417V47.2444V47.247V47.2496V47.2522V47.2549V47.2575V47.2601V47.2628V47.2654V47.268V47.2707V47.2733V47.2759V47.2785V47.2812V47.2838V47.2865V47.2891V47.2917V47.2944V47.297V47.2996V47.3023V47.3049V47.3075V47.3102V47.3128V47.3155V47.3181V47.3208V47.3234V47.326V47.3287V47.3313V47.334V47.3366V47.3393V47.3419V47.3446V47.3472V47.3498V47.3525V47.3551V47.3578V47.3604V47.3631V47.3657V47.3684V47.371V47.3737V47.3764V47.379V47.3817V47.3843V47.387V47.3896V47.3923V47.3949V47.3976V47.4003V47.4029V47.4056V47.4082V47.4109V47.4136V47.4162V47.4189V47.4215V47.4242V47.4269V47.4295V47.4322V47.4349V47.4375V47.4402V47.4429V47.4455V47.4482V47.4509V47.4535V47.4562V47.4589V47.4615V47.4642V47.4669V47.4696V47.4722V47.4749V47.4776V47.4803V47.4829V47.4856V47.4883V47.491V47.4936V47.4963V47.499V47.5017V47.5043V47.507V47.5097V47.5124V47.5151V47.5178V47.5204V47.5231V47.5258V47.5285V47.5312V47.5339V47.5365V47.5392V47.5419V47.5421V47.5446V47.5473V47.55V47.5527V47.5554V47.5581V47.5607V47.5634V47.5661V47.5688V47.5715V47.5742V47.5769V47.5796V47.5823V47.585V47.5877V47.5904V47.5931V47.5958V47.5985V47.6012V47.6039V47.6066V47.6093V47.612V47.6147V47.6174V47.6201V47.6228V47.6255V47.6282V47.6309V47.6336V47.6363V47.639V47.6417V47.6444V47.6471V47.6499V47.6526V47.6553V47.658V47.6607V47.6634V47.6661V47.6688V47.6716V47.6743V47.677V47.6797V47.6824V47.6851V47.6878V47.6906V47.6933V47.696V47.6987V47.7014V47.7042V47.7069V47.7096V47.7123V47.715V47.7178V47.7205V47.7232V47.7259V47.7287V47.7314V47.7341V47.7368V47.7396V47.7423V47.745V47.7478V47.7505V47.7532V47.756V47.7587V47.7614V47.7641V47.7669V47.7696V47.7723V47.7751V47.7778V47.7806V47.7833V47.786V47.7888V47.7915V47.7942V47.797V47.7997V47.8025V47.8052V47.8079V47.8107V47.8134V47.8162V47.8189V47.8217V47.8244V47.8272C23.5005 48.6556 24.172 49.3272 25.0005 49.3272C25.8289 49.3272 26.5005 48.6556 26.5005 47.8272V47.8244V47.8217V47.8189V47.8162V47.8134V47.8107V47.8079V47.8052V47.8025V47.7997V47.797V47.7942V47.7915V47.7888V47.786V47.7833V47.7806V47.7778V47.7751V47.7723V47.7696V47.7669V47.7641V47.7614V47.7587V47.756V47.7532V47.7505V47.7478V47.745V47.7423V47.7396V47.7368V47.7341V47.7314V47.7287V47.7259V47.7232V47.7205V47.7178V47.715V47.7123V47.7096V47.7069V47.7042V47.7014V47.6987V47.696V47.6933V47.6906V47.6878V47.6851V47.6824V47.6797V47.677V47.6743V47.6716V47.6688V47.6661V47.6634V47.6607V47.658V47.6553V47.6526V47.6499V47.6471V47.6444V47.6417V47.639V47.6363V47.6336V47.6309V47.6282V47.6255V47.6228V47.6201V47.6174V47.6147V47.612V47.6093V47.6066V47.6039V47.6012V47.5985V47.5958V47.5931V47.5904V47.5877V47.585V47.5823V47.5796V47.5769V47.5742V47.5715V47.5688V47.5661V47.5634V47.5607V47.5581V47.5554V47.5527V47.55V47.5473V47.5446V47.5421V47.5419V47.5392V47.5365V47.5339V47.5312V47.5285V47.5258V47.5231V47.5204V47.5178V47.5151V47.5124V47.5097V47.507V47.5043V47.5017V47.499V47.4963V47.4936V47.491V47.4883V47.4856V47.4829V47.4803V47.4776V47.4749V47.4722V47.4696V47.4669V47.4642V47.4615V47.4589V47.4562V47.4535V47.4509V47.4482V47.4455V47.4429V47.4402V47.4375V47.4349V47.4322V47.4295V47.4269V47.4242V47.4215V47.4189V47.4162V47.4136V47.4109V47.4082V47.4056V47.4029V47.4003V47.3976V47.3949V47.3923V47.3896V47.387V47.3843V47.3817V47.379V47.3764V47.3737V47.371V47.3684V47.3657V47.3631V47.3604V47.3578V47.3551V47.3525V47.3498V47.3472V47.3445C26.9944 47.0991 27.3338 46.5894 27.3338 46.0004C27.3338 45.4304 27.0158 44.9347 26.5476 44.6808C26.4795 43.9601 25.8965 43.3751 25.1509 43.327C24.3242 43.2735 23.6108 43.9004 23.5573 44.7271C23.5333 45.0992 23.5168 45.4733 23.508 45.8492ZM29.1671 44.5004C28.3387 44.5004 27.6671 45.172 27.6671 46.0004C27.6671 46.8289 28.3387 47.5004 29.1671 47.5004H30.0005C30.4058 47.5004 30.7963 47.5536 31.1666 47.6526C31.9669 47.8666 32.7891 47.3912 33.0031 46.5909C33.217 45.7905 32.7416 44.9683 31.9413 44.7544C31.3206 44.5885 30.6697 44.5004 30.0005 44.5004H29.1671ZM37.2465 50.0596C37.0326 49.2593 36.2104 48.7839 35.41 48.9978C34.6097 49.2118 34.1343 50.034 34.3483 50.8343C34.4473 51.2046 34.5005 51.5951 34.5005 52.0004V54.0838C34.5005 54.9122 35.172 55.5838 36.0005 55.5838C36.8289 55.5838 37.5005 54.9122 37.5005 54.0838V52.0004C37.5005 51.3312 37.4124 50.6803 37.2465 50.0596ZM23.5005 53.7088V53.7083V53.7057V53.7031V53.7005V53.6979V53.6953V53.6927V53.6902V53.6876V53.685V53.6824V53.6798V53.6772V53.6746V53.672V53.6694V53.6668V53.6642V53.6617V53.6591V53.6565V53.6539V53.6513V53.6487V53.6461V53.6436V53.641V53.6384V53.6358V53.6332V53.6306V53.628V53.6255V53.6229V53.6203V53.6177V53.6151V53.6125V53.61V53.6074V53.6048V53.6022V53.5996V53.5971V53.5945V53.5919V53.5893V53.5867V53.5842V53.5816V53.579V53.5764V53.5738V53.5713V53.5687V53.5661V53.5635V53.561V53.5584V53.5558V53.5532V53.5507V53.5481V53.5455V53.5429V53.5404V53.5378V53.5352V53.5326V53.5301V53.5275V53.5249V53.5224V53.5198V53.5172V53.5146V53.5121V53.5095V53.5069V53.5044V53.5018V53.4992V53.4967V53.4941V53.4915V53.489V53.4864V53.4838V53.4813V53.4787V53.4761V53.4736V53.471V53.4684V53.4659V53.4633V53.4607V53.4582V53.4556V53.453V53.4505V53.4479V53.4454V53.4428V53.4402V53.4377V53.4351V53.4325V53.43V53.4274V53.4249V53.4223V53.4197V53.4172V53.4146V53.4121V53.4095V53.407V53.4044V53.4018V53.3993V53.3967V53.3942V53.3916V53.3891V53.3865V53.3839V53.3814V53.3788V53.3763V53.3737V53.3712V53.3686V53.3661V53.3635V53.361V53.3584V53.3559V53.3533V53.3508V53.3482V53.3457V53.3431V53.3406V53.338V53.3355V53.3329V53.3304V53.3278V53.3253V53.3227V53.3202V53.3176V53.3151V53.3125V53.31V53.3074V53.3049V53.3024V53.2998V53.2973V53.2947V53.2922V53.2896V53.2871V53.2845V53.282V53.2795V53.2769V53.2744V53.2718V53.2693V53.2668V53.2642V53.2617V53.2591V53.2566V53.2541V53.2515V53.249V53.2464V53.2439V53.2414V53.2388V53.2363V53.2338V53.2312V53.2287V53.2261V53.2236V53.2211V53.2185V53.216V53.2135V53.2109V53.2084V53.2059V53.2033V53.2008V53.1983V53.1957V53.1932V53.1907V53.1881V53.1856V53.1831V53.1805V53.178V53.1755V53.173V53.1704V53.1679V53.1654C23.5005 52.3369 24.172 51.6654 25.0005 51.6654C25.8289 51.6654 26.5005 52.3369 26.5005 53.1654V53.1679V53.1704V53.173V53.1755V53.178V53.1805V53.1831V53.1856V53.1881V53.1907V53.1932V53.1957V53.1983V53.2008V53.2033V53.2059V53.2084V53.2109V53.2135V53.216V53.2185V53.2211V53.2236V53.2261V53.2287V53.2312V53.2338V53.2363V53.2388V53.2414V53.2439V53.2464V53.249V53.2515V53.2541V53.2566V53.2591V53.2617V53.2642V53.2668V53.2693V53.2718V53.2744V53.2769V53.2795V53.282V53.2845V53.2871V53.2896V53.2922V53.2947V53.2973V53.2998V53.3024V53.3049V53.3074V53.31V53.3125V53.3151V53.3176V53.3202V53.3227V53.3253V53.3278V53.3304V53.3329V53.3355V53.338V53.3406V53.3431V53.3457V53.3482V53.3508V53.3533V53.3559V53.3584V53.361V53.3635V53.3661V53.3686V53.3712V53.3737V53.3763V53.3788V53.3814V53.3839V53.3865V53.3891V53.3916V53.3942V53.3967V53.3993V53.4018V53.4044V53.407V53.4095V53.4121V53.4146V53.4172V53.4197V53.4223V53.4249V53.4274V53.43V53.4325V53.4351V53.4377V53.4402V53.4428V53.4454V53.4479V53.4505V53.453V53.4556V53.4582V53.4607V53.4633V53.4659V53.4684V53.471V53.4736V53.4761V53.4787V53.4813V53.4838V53.4864V53.489V53.4915V53.4941V53.4967V53.4992V53.5018V53.5044V53.5069V53.5095V53.5121V53.5146V53.5172V53.5198V53.5224V53.5249V53.5275V53.5301V53.5326V53.5352V53.5378V53.5404V53.5429V53.5455V53.5481V53.5507V53.5532V53.5558V53.5584V53.561V53.5635V53.5661V53.5687V53.5713V53.5738V53.5764V53.579V53.5816V53.5842V53.5867V53.5893V53.5919V53.5945V53.5971V53.5996V53.6022V53.6048V53.6074V53.61V53.6125V53.6151V53.6177V53.6203V53.6229V53.6255V53.628V53.6306V53.6332V53.6358V53.6384V53.641V53.6436V53.6461V53.6487V53.6513V53.6539V53.6565V53.6591V53.6617V53.6642V53.6668V53.6694V53.672V53.6746V53.6772V53.6798V53.6824V53.685V53.6876V53.6902V53.6927V53.6953V53.6979V53.7005V53.7031V53.7057V53.7083V53.7088V53.7109V53.7135V53.7161V53.7187V53.7213V53.7239V53.7265V53.7291V53.7317V53.7342V53.7368V53.7394V53.742V53.7446V53.7472V53.7498V53.7524V53.755V53.7576V53.7602V53.7628V53.7654V53.768V53.7706V53.7732V53.7758V53.7784V53.781V53.7836V53.7862V53.7888V53.7915V53.7941V53.7967V53.7993V53.8019V53.8045V53.8071V53.8097V53.8123V53.8149V53.8175V53.8201V53.8227V53.8253V53.8279V53.8305V53.8332V53.8358V53.8384V53.841V53.8436V53.8462V53.8488V53.8514V53.854V53.8566V53.8593V53.8619V53.8645V53.8671V53.8697V53.8723V53.8749V53.8775V53.8802V53.8828V53.8854V53.888V53.8906V53.8932V53.8958V53.8985V53.9011V53.9037V53.9063V53.9089V53.9115V53.9142V53.9168V53.9194V53.922V53.9246V53.9273V53.9299V53.9325V53.9351V53.9377V53.9404V53.943V53.9456V53.9482V53.9509V53.9535V53.9561V53.9587V53.9613V53.964V53.9666V53.9692V53.9718V53.9745V53.9771V53.9797V53.9823V53.985V53.9876V53.9902V53.9929V53.9955V53.9981V54.0007V54.0034V54.006V54.0086V54.0113V54.0139V54.0165V54.0191V54.0218V54.0244V54.027V54.0297V54.0323V54.0349V54.0376V54.0402V54.0428V54.0455V54.0481V54.0507V54.0534V54.056V54.0586V54.0613V54.0639V54.0665V54.0692V54.0718V54.0745V54.0771V54.0797V54.0824V54.085V54.0876V54.0903V54.0929V54.0956V54.0982V54.1008V54.1035V54.1061V54.1088V54.1114V54.1141V54.1167V54.1193V54.122V54.1246V54.1273V54.1299V54.1326V54.1352V54.1378V54.1405V54.1431V54.1458V54.1484V54.1511V54.1537V54.1564V54.159V54.1617V54.1643V54.167V54.1696V54.1723V54.1749V54.1776V54.1802V54.1828V54.1855V54.1881V54.1908V54.1935V54.1961V54.1988V54.2014V54.2041V54.2067V54.2094V54.212V54.2147V54.2173V54.22V54.2226V54.2253V54.2279V54.2306V54.2333V54.2359V54.2386V54.2412V54.2439V54.2465V54.2492V54.2519V54.2545V54.2572V54.2598V54.2625V54.2652V54.2678V54.2705V54.2731V54.2758V54.2785V54.2811V54.2838V54.2864V54.2891V54.2918V54.2944V54.2971V54.2998V54.3024V54.3051V54.3078V54.3104V54.3131V54.3158V54.3184V54.3211V54.3237V54.3264V54.3291V54.3317V54.3344V54.3371V54.3398V54.3424V54.3451V54.3478V54.3504V54.3531V54.3558V54.3584V54.3611V54.3638V54.3665V54.3691V54.3718V54.3745V54.3771V54.3798V54.3825V54.3852V54.3878V54.3905V54.3932V54.3959V54.3985V54.4012V54.4039V54.4066V54.4092V54.4119V54.4146V54.4173V54.42V54.4226V54.4253V54.428V54.4307V54.4333V54.436V54.4387V54.4414V54.4441V54.4468V54.4494V54.4521V54.4548V54.4575V54.4602V54.4628V54.4655V54.4682V54.4709V54.4736V54.4763V54.479V54.4816V54.4843V54.487V54.4897V54.4924V54.4951V54.4978V54.5004V56.7921C26.5005 57.6205 25.8289 58.2921 25.0005 58.2921C24.172 58.2921 23.5005 57.6205 23.5005 56.7921V54.5004V54.4978V54.4951V54.4924V54.4897V54.487V54.4843V54.4816V54.479V54.4763V54.4736V54.4709V54.4682V54.4655V54.4628V54.4602V54.4575V54.4548V54.4521V54.4494V54.4468V54.4441V54.4414V54.4387V54.436V54.4333V54.4307V54.428V54.4253V54.4226V54.42V54.4173V54.4146V54.4119V54.4092V54.4066V54.4039V54.4012V54.3985V54.3959V54.3932V54.3905V54.3878V54.3852V54.3825V54.3798V54.3771V54.3745V54.3718V54.3691V54.3665V54.3638V54.3611V54.3584V54.3558V54.3531V54.3504V54.3478V54.3451V54.3424V54.3398V54.3371V54.3344V54.3317V54.3291V54.3264V54.3237V54.3211V54.3184V54.3158V54.3131V54.3104V54.3078V54.3051V54.3024V54.2998V54.2971V54.2944V54.2918V54.2891V54.2864V54.2838V54.2811V54.2785V54.2758V54.2731V54.2705V54.2678V54.2652V54.2625V54.2598V54.2572V54.2545V54.2519V54.2492V54.2465V54.2439V54.2412V54.2386V54.2359V54.2333V54.2306V54.2279V54.2253V54.2226V54.22V54.2173V54.2147V54.212V54.2094V54.2067V54.2041V54.2014V54.1988V54.1961V54.1935V54.1908V54.1881V54.1855V54.1828V54.1802V54.1776V54.1749V54.1723V54.1696V54.167V54.1643V54.1617V54.159V54.1564V54.1537V54.1511V54.1484V54.1458V54.1431V54.1405V54.1378V54.1352V54.1326V54.1299V54.1273V54.1246V54.122V54.1193V54.1167V54.1141V54.1114V54.1088V54.1061V54.1035V54.1008V54.0982V54.0956V54.0929V54.0903V54.0876V54.085V54.0824V54.0797V54.0771V54.0745V54.0718V54.0692V54.0665V54.0639V54.0613V54.0586V54.056V54.0534V54.0507V54.0481V54.0455V54.0428V54.0402V54.0376V54.0349V54.0323V54.0297V54.027V54.0244V54.0218V54.0191V54.0165V54.0139V54.0113V54.0086V54.006V54.0034V54.0007V53.9981V53.9955V53.9929V53.9902V53.9876V53.985V53.9823V53.9797V53.9771V53.9745V53.9718V53.9692V53.9666V53.964V53.9613V53.9587V53.9561V53.9535V53.9509V53.9482V53.9456V53.943V53.9404V53.9377V53.9351V53.9325V53.9299V53.9273V53.9246V53.922V53.9194V53.9168V53.9142V53.9115V53.9089V53.9063V53.9037V53.9011V53.8985V53.8958V53.8932V53.8906V53.888V53.8854V53.8828V53.8802V53.8775V53.8749V53.8723V53.8697V53.8671V53.8645V53.8619V53.8593V53.8566V53.854V53.8514V53.8488V53.8462V53.8436V53.841V53.8384V53.8358V53.8332V53.8305V53.8279V53.8253V53.8227V53.8201V53.8175V53.8149V53.8123V53.8097V53.8071V53.8045V53.8019V53.7993V53.7967V53.7941V53.7915V53.7888V53.7862V53.7836V53.781V53.7784V53.7758V53.7732V53.7706V53.768V53.7654V53.7628V53.7602V53.7576V53.755V53.7524V53.7498V53.7472V53.7446V53.742V53.7394V53.7368V53.7342V53.7317V53.7291V53.7265V53.7239V53.7213V53.7187V53.7161V53.7135V53.7109V53.7088ZM37.5005 62.4171C37.5005 61.5887 36.8289 60.9171 36.0005 60.9171C35.172 60.9171 34.5005 61.5887 34.5005 62.4171V64.5004C34.5005 64.861 34.4531 65.2081 34.3652 65.5371C34.1513 66.3374 34.6266 67.1597 35.427 67.3736C36.2273 67.5875 37.0495 67.1122 37.2634 66.3118C37.4183 65.7324 37.5005 65.1249 37.5005 64.5004V62.4171ZM26.5005 62.9588C26.5005 62.1303 25.8289 61.4588 25.0005 61.4588C24.172 61.4588 23.5005 62.1303 23.5005 62.9588V64.5004C23.5005 65.1249 23.5826 65.7324 23.7375 66.3118C23.9514 67.1122 24.7736 67.5875 25.574 67.3736C26.3743 67.1597 26.8496 66.3374 26.6357 65.5371C26.5478 65.2081 26.5005 64.861 26.5005 64.5004V62.9588ZM29.4638 68.3652C28.6635 68.1513 27.8412 68.6266 27.6273 69.4269C27.4134 70.2273 27.8888 71.0495 28.6891 71.2634C29.2685 71.4183 29.876 71.5004 30.5005 71.5004C31.1249 71.5004 31.7324 71.4183 32.3118 71.2634C33.1122 71.0495 33.5875 70.2273 33.3736 69.4269C33.1597 68.6266 32.3375 68.1513 31.5371 68.3652C31.2081 68.4531 30.861 68.5004 30.5005 68.5004C30.1399 68.5004 29.7928 68.4531 29.4638 68.3652ZM74.454 44.6805C74.5255 43.9632 75.1071 43.3822 75.85 43.3342C76.6767 43.2808 77.3901 43.9076 77.4436 44.7343C77.4674 45.1033 77.4838 45.4742 77.4927 45.8469C77.4978 45.8974 77.5005 45.9486 77.5005 46.0004V46.5004V47.5421V47.8338C77.5005 48.6622 76.8289 49.3338 76.0005 49.3338C75.172 49.3338 74.5005 48.6622 74.5005 47.8338V47.5421V47.3445C74.0066 47.0991 73.6671 46.5894 73.6671 46.0004C73.6671 45.4301 73.9854 44.9342 74.454 44.6805ZM73.3338 46.0004C73.3338 45.172 72.6622 44.5004 71.8338 44.5004H71.0005C70.3313 44.5004 69.6803 44.5885 69.0596 44.7544C68.2593 44.9683 67.7839 45.7905 67.9979 46.5909C68.2118 47.3912 69.034 47.8666 69.8343 47.6526C70.2046 47.5536 70.5952 47.5004 71.0005 47.5004H71.8338C72.6622 47.5004 73.3338 46.8289 73.3338 46.0004ZM65.5909 48.9978C64.7905 48.7839 63.9683 49.2593 63.7544 50.0596C63.5885 50.6803 63.5005 51.3312 63.5005 52.0004V54.0838C63.5005 54.9122 64.172 55.5838 65.0005 55.5838C65.8289 55.5838 66.5005 54.9122 66.5005 54.0838V52.0004C66.5005 51.5951 66.5537 51.2046 66.6526 50.8343C66.8666 50.034 66.3912 49.2118 65.5909 48.9978ZM77.5005 56.7921V54.5004V53.7088V53.1671C77.5005 52.3387 76.8289 51.6671 76.0005 51.6671C75.172 51.6671 74.5005 52.3387 74.5005 53.1671V53.7088V54.5004V56.7921C74.5005 57.6205 75.172 58.2921 76.0005 58.2921C76.8289 58.2921 77.5005 57.6205 77.5005 56.7921ZM65.0005 60.9171C64.172 60.9171 63.5005 61.5887 63.5005 62.4171V64.5004C63.5005 65.1249 63.5826 65.7324 63.7375 66.3118C63.9514 67.1122 64.7736 67.5875 65.574 67.3736C66.3743 67.1597 66.8496 66.3374 66.6357 65.5371C66.5478 65.2081 66.5005 64.861 66.5005 64.5004V62.4171C66.5005 61.5887 65.8289 60.9171 65.0005 60.9171ZM76.0005 61.4588C75.172 61.4588 74.5005 62.1303 74.5005 62.9588V64.5004C74.5005 64.861 74.4531 65.2081 74.3652 65.5371C74.1513 66.3374 74.6266 67.1597 75.427 67.3736C76.2273 67.5875 77.0495 67.1122 77.2634 66.3118C77.4183 65.7324 77.5005 65.1249 77.5005 64.5004V62.9588C77.5005 62.1303 76.8289 61.4588 76.0005 61.4588ZM73.3736 69.4269C73.1597 68.6266 72.3374 68.1513 71.5371 68.3652C71.2081 68.4531 70.861 68.5004 70.5005 68.5004C70.1399 68.5004 69.7928 68.4531 69.4638 68.3652C68.6635 68.1513 67.8412 68.6266 67.6273 69.4269C67.4134 70.2273 67.8887 71.0495 68.6891 71.2634C69.2685 71.4183 69.876 71.5004 70.5005 71.5004C71.1249 71.5004 71.7324 71.4183 72.3118 71.2634C73.1122 71.0495 73.5875 70.2273 73.3736 69.4269ZM48.9279 22.551C49.4476 22.5175 49.9719 22.5004 50.5005 22.5004C51.029 22.5004 51.5534 22.5175 52.0731 22.5511C52.8998 22.6045 53.6133 21.9776 53.6667 21.1509C53.7201 20.3242 53.0933 19.6108 52.2666 19.5573C51.6825 19.5196 51.0936 19.5004 50.5005 19.5004C49.9074 19.5004 49.3186 19.5196 48.7346 19.5573C47.9079 19.6107 47.281 20.3241 47.3344 21.1508C47.3878 21.9775 48.1012 22.6044 48.9279 22.551ZM42.7833 23.7669C43.5679 23.5008 43.9882 22.6491 43.7221 21.8646C43.456 21.08 42.6043 20.6597 41.8198 20.9258C40.6969 21.3067 39.6073 21.7593 38.5564 22.2781C37.8136 22.6449 37.5088 23.5444 37.8756 24.2872C38.2424 25.03 39.1419 25.3349 39.8847 24.9681C40.8183 24.5071 41.7861 24.1051 42.7833 23.7669ZM59.1822 20.927C58.3978 20.6608 57.546 21.0809 57.2797 21.8654C57.0135 22.6498 57.4336 23.5016 58.2181 23.7678C59.2153 24.1063 60.1832 24.5086 61.1168 24.9699C61.8595 25.3368 62.7591 25.0322 63.1261 24.2895C63.493 23.5468 63.1884 22.6472 62.4457 22.2802C61.3948 21.761 60.3052 21.3081 59.1822 20.927ZM34.6768 28.452C35.2996 27.9057 35.3616 26.958 34.8153 26.3352C34.269 25.7124 33.3212 25.6505 32.6985 26.1968C31.8129 26.9736 30.9787 27.8075 30.2014 28.6927C29.6548 29.3152 29.7164 30.2629 30.3389 30.8095C30.9614 31.3561 31.9092 31.2946 32.4558 30.6721C33.1471 29.8847 33.8892 29.143 34.6768 28.452ZM68.3034 26.2008C67.6807 25.6544 66.733 25.7161 66.1865 26.3387C65.6401 26.9614 65.7018 27.9091 66.3244 28.4556C67.1121 29.1468 67.8541 29.8888 68.5453 30.6765C69.0918 31.2991 70.0395 31.3608 70.6622 30.8144C71.2848 30.2679 71.3465 29.3202 70.8001 28.6975C70.023 27.8121 69.1888 26.9779 68.3034 26.2008ZM28.9698 35.8783C29.3368 35.1356 29.0323 34.236 28.2896 33.869C27.547 33.5019 26.6474 33.8064 26.2803 34.5491C25.761 35.5998 25.3081 36.6894 24.927 37.8122C24.6607 38.5967 25.0808 39.4485 25.8652 39.7147C26.6497 39.981 27.5015 39.5609 27.7678 38.7765C28.1062 37.7794 28.5085 36.8117 28.9698 35.8783ZM74.7207 34.5552C74.3537 33.8125 73.4541 33.5079 72.7114 33.8748C71.9687 34.2418 71.6641 35.1414 72.031 35.8841C72.4923 36.8177 72.8946 37.7856 73.2331 38.7828C73.4993 39.5673 74.3511 39.9874 75.1356 39.7212C75.92 39.4549 76.3401 38.6031 76.0739 37.8187C75.6928 36.6957 75.2399 35.6061 74.7207 34.5552Z" fill="#C3BB9C"/>
</g>
</svg>
