<svg width="100" height="100" viewBox="0 0 100 100" fill="none" xmlns="http://www.w3.org/2000/svg">
<g id="illo.EmptyFav" clip-path="url(#clip0_10425_167479)">
<path id="Union" fill-rule="evenodd" clip-rule="evenodd" d="M50 20.5C49.5781 20.5 49.1634 20.5274 48.7573 20.5804C47.9359 20.6875 47.1831 20.1085 47.0759 19.287C46.9687 18.4655 47.5478 17.7127 48.3693 17.6056C48.9037 17.5359 49.448 17.5 50 17.5C50.552 17.5 51.0963 17.5359 51.6307 17.6056C52.4522 17.7127 53.0313 18.4655 52.9241 19.287C52.8169 20.1085 52.0642 20.6875 51.2427 20.5804C50.8366 20.5274 50.4219 20.5 50 20.5ZM44.4928 20.3586C44.9975 21.0155 44.8742 21.9572 44.2174 22.462C43.5587 22.9681 42.9681 23.5587 42.462 24.2174C41.9572 24.8742 41.0155 24.9975 40.3586 24.4928C39.7017 23.988 39.5784 23.0463 40.0832 22.3894C40.7483 21.524 41.524 20.7483 42.3894 20.0832C43.0463 19.5784 43.988 19.7017 44.4928 20.3586ZM55.5072 20.3586C56.012 19.7017 56.9537 19.5784 57.6106 20.0832C58.476 20.7483 59.2517 21.524 59.9168 22.3894C60.4216 23.0463 60.2983 23.988 59.6414 24.4928C58.9845 24.9975 58.0428 24.8742 57.538 24.2174C57.0319 23.5587 56.4413 22.9681 55.7826 22.462C55.1258 21.9572 55.0025 21.0155 55.5072 20.3586ZM39.287 27.0759C40.1085 27.1831 40.6875 27.9358 40.5804 28.7573C40.5274 29.1634 40.5 29.5781 40.5 30V31.1667C40.5 31.9951 39.8284 32.6667 39 32.6667C38.1716 32.6667 37.5 31.9951 37.5 31.1667V30C37.5 29.448 37.5359 28.9037 37.6056 28.3693C37.7127 27.5478 38.4655 26.9687 39.287 27.0759ZM60.713 27.0759C61.5345 26.9687 62.2873 27.5478 62.3944 28.3693C62.4641 28.9037 62.5 29.448 62.5 30V31.1667C62.5 31.9951 61.8284 32.6667 61 32.6667C60.1716 32.6667 59.5 31.9951 59.5 31.1667V30C59.5 29.5781 59.4726 29.1634 59.4196 28.7573C59.3125 27.9359 59.8915 27.1831 60.713 27.0759ZM61 34.3333C61.8284 34.3333 62.5 35.0049 62.5 35.8333V37C62.5 37.552 62.4641 38.0963 62.3944 38.6307C62.2873 39.4522 61.5345 40.0313 60.713 39.9241C59.8915 39.8169 59.3125 39.0642 59.4196 38.2427C59.4726 37.8366 59.5 37.4219 59.5 37V35.8333C59.5 35.0049 60.1716 34.3333 61 34.3333ZM39 34.3333C39.8284 34.3333 40.5 35.0049 40.5 35.8333V37C40.5 37.4219 40.5274 37.8366 40.5804 38.2427C40.6875 39.0641 40.1085 39.8169 39.287 39.9241C38.4655 40.0313 37.7127 39.4522 37.6056 38.6307C37.5359 38.0963 37.5 37.552 37.5 37V35.8333C37.5 35.0049 38.1716 34.3333 39 34.3333ZM40.3586 42.5072C41.0155 42.0025 41.9572 42.1258 42.462 42.7826C42.9681 43.4413 43.5587 44.0319 44.2174 44.538C44.8742 45.0428 44.9975 45.9845 44.4928 46.6414C43.988 47.2983 43.0463 47.4216 42.3894 46.9168C41.524 46.2517 40.7483 45.476 40.0832 44.6106C39.5784 43.9537 39.7017 43.012 40.3586 42.5072ZM59.6414 42.5072C60.2983 43.012 60.4216 43.9537 59.9168 44.6106C59.2517 45.476 58.476 46.2517 57.6106 46.9168C56.9537 47.4216 56.012 47.2983 55.5072 46.6414C55.0025 45.9845 55.1258 45.0428 55.7826 44.538C56.4413 44.0319 57.0319 43.4413 57.538 42.7826C58.0428 42.1258 58.9845 42.0025 59.6414 42.5072ZM47.0759 47.713C47.1831 46.8915 47.9358 46.3125 48.7573 46.4196C49.1634 46.4726 49.5781 46.5 50 46.5C50.4219 46.5 50.8366 46.4726 51.2427 46.4196C52.0641 46.3125 52.8169 46.8915 52.9241 47.713C53.0313 48.5345 52.4522 49.2873 51.6307 49.3944C51.0963 49.4641 50.552 49.5 50 49.5C49.448 49.5 48.9037 49.4641 48.3693 49.3944C47.5478 49.2873 46.9687 48.5345 47.0759 47.713ZM4.5 48.3736C3.67157 48.3736 3 49.0452 3 49.8736C3 50.702 3.67157 51.3736 4.5 51.3736H11.5428C12.3712 51.3736 13.0428 50.702 13.0428 49.8736C13.0428 49.0452 12.3712 48.3736 11.5428 48.3736H4.5ZM95.793 51.0879C96.6215 51.0879 97.293 50.4164 97.293 49.5879C97.293 48.7595 96.6215 48.0879 95.793 48.0879H88.7503C87.9218 48.0879 87.2503 48.7595 87.2503 49.5879C87.2503 50.4164 87.9218 51.0879 88.7503 51.0879H95.793ZM6.34818 69.6877C5.97929 68.9459 6.25408 67.9957 6.96195 67.5654L13.1248 63.8185C13.8327 63.3882 14.7056 63.6406 15.0745 64.3824C15.4434 65.1241 15.1686 66.0743 14.4607 66.5047L8.29783 70.2515C7.58996 70.6819 6.71708 70.4294 6.34818 69.6877ZM93.3311 31.8962C94.039 31.4658 94.3138 30.5156 93.9449 29.7739C93.576 29.0321 92.7031 28.7797 91.9952 29.21L85.8323 32.9569C85.1245 33.3872 84.8497 34.3374 85.2186 35.0792C85.5875 35.821 86.4604 36.0734 87.1682 35.643L93.3311 31.8962ZM6.34837 29.7738C5.97948 30.5155 6.25427 31.4657 6.96214 31.8961L13.125 35.6429C13.8329 36.0733 14.7058 35.8209 15.0747 35.0791C15.4436 34.3374 15.1688 33.3872 14.4609 32.9568L8.29802 29.2099C7.59015 28.7796 6.71726 29.032 6.34837 29.7738ZM93.3309 67.5655C94.0388 67.9958 94.3136 68.946 93.9447 69.6878C93.5758 70.4295 92.7029 70.682 91.995 70.2516L85.8321 66.5048C85.1243 66.0744 84.8495 65.1242 85.2184 64.3824C85.5873 63.6407 86.4602 63.3882 87.168 63.8186L93.3309 67.5655ZM42 55.5C41.4279 55.5 40.8611 55.5247 40.3008 55.5731C39.4755 55.6444 38.8642 56.3713 38.9355 57.1967C39.0068 58.022 39.7337 58.6333 40.5591 58.562C41.0336 58.521 41.5142 58.5 42 58.5H43.3333C44.1618 58.5 44.8333 57.8284 44.8333 57C44.8333 56.1716 44.1618 55.5 43.3333 55.5H42ZM48.6667 55.5C47.8382 55.5 47.1667 56.1716 47.1667 57C47.1667 57.8284 47.8382 58.5 48.6667 58.5H51.3333C52.1618 58.5 52.8333 57.8284 52.8333 57C52.8333 56.1716 52.1618 55.5 51.3333 55.5H48.6667ZM56.6667 55.5C55.8382 55.5 55.1667 56.1716 55.1667 57C55.1667 57.8284 55.8382 58.5 56.6667 58.5H58C58.4858 58.5 58.9664 58.521 59.4409 58.562C60.2663 58.6333 60.9932 58.022 61.0645 57.1967C61.1358 56.3713 60.5245 55.6444 59.6992 55.5731C59.1389 55.5247 58.5721 55.5 58 55.5H56.6667ZM66.2438 57.3236C65.4932 56.9729 64.6006 57.2972 64.25 58.0478C63.8993 58.7984 64.2236 59.691 64.9742 60.0416C65.8482 60.4499 66.6807 60.9326 67.4637 61.4819C68.1419 61.9576 69.0773 61.7935 69.5531 61.1153C70.0289 60.4371 69.8647 59.5017 69.1865 59.0259C68.2617 58.3771 67.2776 57.8064 66.2438 57.3236ZM35.0258 60.0416C35.7764 59.691 36.1006 58.7984 35.75 58.0478C35.3994 57.2972 34.5068 56.9729 33.7562 57.3236C32.7224 57.8064 31.7383 58.3771 30.8135 59.0259C30.1353 59.5017 29.9711 60.4371 30.4469 61.1153C30.9226 61.7935 31.8581 61.9576 32.5363 61.4819C33.3193 60.9327 34.1518 60.4499 35.0258 60.0416ZM73.9741 63.8135C73.4983 63.1353 72.5629 62.9711 71.8847 63.4469C71.2065 63.9226 71.0424 64.8581 71.5181 65.5363C72.0674 66.3193 72.5501 67.1518 72.9584 68.0258C73.309 68.7764 74.2016 69.1006 74.9522 68.75C75.7028 68.3994 76.0271 67.5068 75.6764 66.7562C75.1936 65.7224 74.6229 64.7383 73.9741 63.8135ZM28.4819 65.5363C28.9576 64.8581 28.7935 63.9226 28.1153 63.4469C27.4371 62.9711 26.5017 63.1353 26.0259 63.8135C25.3771 64.7383 24.8064 65.7224 24.3236 66.7562C23.9729 67.5068 24.2972 68.3994 25.0478 68.75C25.7984 69.1007 26.691 68.7764 27.0416 68.0258C27.4499 67.1518 27.9326 66.3193 28.4819 65.5363ZM77.4269 73.3008C77.3556 72.4755 76.6287 71.8642 75.8033 71.9355C74.978 72.0068 74.3667 72.7337 74.438 73.5591C74.479 74.0336 74.5 74.5142 74.5 75V76.6667C74.5 77.4951 75.1716 78.1667 76 78.1667C76.8284 78.1667 77.5 77.4951 77.5 76.6667V75C77.5 74.4279 77.4753 73.8611 77.4269 73.3008ZM25.562 73.5591C25.6333 72.7337 25.022 72.0068 24.1967 71.9355C23.3713 71.8642 22.6444 72.4755 22.5731 73.3008C22.5247 73.8611 22.5 74.4279 22.5 75V76.6667C22.5 77.4951 23.1716 78.1667 24 78.1667C24.8284 78.1667 25.5 77.4951 25.5 76.6667V75C25.5 74.5142 25.521 74.0336 25.562 73.5591ZM25.5 83.3333C25.5 82.5049 24.8284 81.8333 24 81.8333C23.1716 81.8333 22.5 82.5049 22.5 83.3333V86.6667C22.5 87.4951 23.1716 88.1667 24 88.1667C24.8284 88.1667 25.5 87.4951 25.5 86.6667V83.3333ZM77.5 83.3333C77.5 82.5049 76.8284 81.8333 76 81.8333C75.1716 81.8333 74.5 82.5049 74.5 83.3333V86.6667C74.5 87.4951 75.1716 88.1667 76 88.1667C76.8284 88.1667 77.5 87.4951 77.5 86.6667V83.3333ZM25.5 93.3333C25.5 92.5049 24.8284 91.8333 24 91.8333C23.1716 91.8333 22.5 92.5049 22.5 93.3333V96.6667C22.5 97.4951 23.1716 98.1667 24 98.1667C24.8284 98.1667 25.5 97.4951 25.5 96.6667V93.3333ZM77.5 93.3333C77.5 92.5049 76.8284 91.8333 76 91.8333C75.1716 91.8333 74.5 92.5049 74.5 93.3333V96.6667C74.5 97.4951 75.1716 98.1667 76 98.1667C76.8284 98.1667 77.5 97.4951 77.5 96.6667V93.3333ZM25.5 103.333C25.5 102.505 24.8284 101.833 24 101.833C23.1716 101.833 22.5 102.505 22.5 103.333V106.667C22.5 107.495 23.1716 108.167 24 108.167C24.8284 108.167 25.5 107.495 25.5 106.667V103.333ZM77.5 103.333C77.5 102.505 76.8284 101.833 76 101.833C75.1716 101.833 74.5 102.505 74.5 103.333V106.667C74.5 107.495 75.1716 108.167 76 108.167C76.8284 108.167 77.5 107.495 77.5 106.667V103.333ZM25.5 113.333C25.5 112.505 24.8284 111.833 24 111.833C23.1716 111.833 22.5 112.505 22.5 113.333V115V116.5H24H25.4444C26.2729 116.5 26.9444 115.828 26.9444 115C26.9444 114.19 26.3027 113.53 25.5 113.501V113.333ZM77.5 113.333C77.5 112.505 76.8284 111.833 76 111.833C75.1716 111.833 74.5 112.505 74.5 113.333V113.501C73.6973 113.53 73.0556 114.19 73.0556 115C73.0556 115.828 73.7271 116.5 74.5556 116.5H76H77.5V115V113.333ZM31.2222 113.5C30.3938 113.5 29.7222 114.172 29.7222 115C29.7222 115.828 30.3938 116.5 31.2222 116.5H34.1111C34.9395 116.5 35.6111 115.828 35.6111 115C35.6111 114.172 34.9395 113.5 34.1111 113.5H31.2222ZM39.8889 113.5C39.0605 113.5 38.3889 114.172 38.3889 115C38.3889 115.828 39.0605 116.5 39.8889 116.5H42.7778C43.6062 116.5 44.2778 115.828 44.2778 115C44.2778 114.172 43.6062 113.5 42.7778 113.5H39.8889ZM48.5556 113.5C47.7271 113.5 47.0556 114.172 47.0556 115C47.0556 115.828 47.7271 116.5 48.5556 116.5H51.4444C52.2729 116.5 52.9444 115.828 52.9444 115C52.9444 114.172 52.2729 113.5 51.4444 113.5H48.5556ZM57.2222 113.5C56.3938 113.5 55.7222 114.172 55.7222 115C55.7222 115.828 56.3938 116.5 57.2222 116.5H60.1111C60.9395 116.5 61.6111 115.828 61.6111 115C61.6111 114.172 60.9395 113.5 60.1111 113.5H57.2222ZM65.8889 113.5C65.0605 113.5 64.3889 114.172 64.3889 115C64.3889 115.828 65.0605 116.5 65.8889 116.5H68.7778C69.6062 116.5 70.2778 115.828 70.2778 115C70.2778 114.172 69.6062 113.5 68.7778 113.5H65.8889Z" fill="#C3BB9C"/>
</g>
<defs>
<clipPath id="clip0_10425_167479">
<rect width="100" height="100" fill="white"/>
</clipPath>
</defs>
</svg>
