<svg width="100" height="100" viewBox="0 0 100 100" fill="none" xmlns="http://www.w3.org/2000/svg">
<g id="illo.EmptyFav">
<path id="Union" fill-rule="evenodd" clip-rule="evenodd" d="M50 11.5C49.5338 11.5 49.0755 11.5303 48.6267 11.5888C47.8052 11.696 47.0524 11.1169 46.9453 10.2954C46.8381 9.47398 47.4172 8.72118 48.2386 8.61403C48.8158 8.53875 49.4037 8.5 50 8.5C50.5962 8.5 51.1842 8.53875 51.7613 8.61403C52.5828 8.72118 53.1618 9.47398 53.0547 10.2954C52.9475 11.1169 52.1947 11.696 51.3733 11.5888C50.9245 11.5303 50.4661 11.5 50 11.5ZM43.8839 11.5652C44.3887 12.2221 44.2654 13.1638 43.6086 13.6686C42.8806 14.228 42.228 14.8806 41.6686 15.6086C41.1638 16.2655 40.2221 16.3888 39.5652 15.884C38.9083 15.3792 38.785 14.4375 39.2898 13.7806C40.0081 12.8459 40.8459 12.0081 41.7806 11.2898C42.4375 10.785 43.3792 10.9083 43.8839 11.5652ZM56.116 11.5652C56.6208 10.9083 57.5625 10.785 58.2194 11.2898C59.1541 12.0081 59.9919 12.8459 60.7102 13.7806C61.2149 14.4375 61.0916 15.3792 60.4348 15.884C59.7779 16.3888 58.8362 16.2655 58.3314 15.6086C57.772 14.8807 57.1193 14.228 56.3914 13.6686C55.7345 13.1638 55.6112 12.2221 56.116 11.5652ZM38.2954 18.9453C39.1169 19.0524 39.696 19.8052 39.5888 20.6267C39.5303 21.0755 39.5 21.5338 39.5 22V23.6667C39.5 24.4951 38.8284 25.1667 38 25.1667C37.1716 25.1667 36.5 24.4951 36.5 23.6667V22C36.5 21.4037 36.5387 20.8158 36.614 20.2387C36.7212 19.4172 37.474 18.8381 38.2954 18.9453ZM61.7045 18.9453C62.526 18.8381 63.2788 19.4172 63.3859 20.2387C63.4612 20.8158 63.5 21.4037 63.5 22V23.6667C63.5 24.4951 62.8284 25.1667 62 25.1667C61.1716 25.1667 60.5 24.4951 60.5 23.6667V22C60.5 21.5338 60.4697 21.0755 60.4111 20.6267C60.304 19.8052 60.8831 19.0524 61.7045 18.9453ZM38 28.8333C38.8284 28.8333 39.5 29.5049 39.5 30.3333V33.6667C39.5 34.4951 38.8284 35.1667 38 35.1667C37.1716 35.1667 36.5 34.4951 36.5 33.6667V30.3333C36.5 29.5049 37.1716 28.8333 38 28.8333ZM62 28.8333C62.8284 28.8333 63.5 29.5049 63.5 30.3333V33.6667C63.5 34.4951 62.8284 35.1667 62 35.1667C61.1716 35.1667 60.5 34.4951 60.5 33.6667V30.3333C60.5 29.5049 61.1716 28.8333 62 28.8333ZM62 38.8333C62.8284 38.8333 63.5 39.5049 63.5 40.3333V43.6667C63.5 44.4951 62.8284 45.1667 62 45.1667C61.1716 45.1667 60.5 44.4951 60.5 43.6667V40.3333C60.5 39.5049 61.1716 38.8333 62 38.8333ZM38 38.8333C38.8284 38.8333 39.5 39.5049 39.5 40.3333V43.6667C39.5 44.4951 38.8284 45.1667 38 45.1667C37.1716 45.1667 36.5 44.4951 36.5 43.6667V40.3333C36.5 39.5049 37.1716 38.8333 38 38.8333ZM38 48.8333C38.8284 48.8333 39.5 49.5049 39.5 50.3333V52C39.5 52.4662 39.5303 52.9245 39.5888 53.3733C39.696 54.1948 39.1169 54.9476 38.2954 55.0547C37.474 55.1619 36.7212 54.5828 36.614 53.7613C36.5387 53.1842 36.5 52.5963 36.5 52V50.3333C36.5 49.5049 37.1716 48.8333 38 48.8333ZM62 48.8333C62.8284 48.8333 63.5 49.5049 63.5 50.3333V52C63.5 52.5963 63.4612 53.1842 63.3859 53.7613C63.2788 54.5828 62.526 55.1619 61.7045 55.0547C60.8831 54.9476 60.304 54.1948 60.4111 53.3733C60.4697 52.9245 60.5 52.4662 60.5 52V50.3333C60.5 49.5049 61.1716 48.8333 62 48.8333ZM39.5652 58.116C40.2221 57.6112 41.1638 57.7345 41.6686 58.3914C42.2279 59.1194 42.8806 59.772 43.6086 60.3314C44.2654 60.8362 44.3887 61.7779 43.8839 62.4348C43.3792 63.0917 42.4375 63.215 41.7806 62.7102C40.8459 61.9919 40.0081 61.1541 39.2898 60.2194C38.785 59.5625 38.9083 58.6208 39.5652 58.116ZM60.4348 58.116C61.0916 58.6208 61.2149 59.5625 60.7101 60.2194C59.9919 61.1541 59.1541 61.9919 58.2194 62.7102C57.5625 63.215 56.6208 63.0917 56.116 62.4348C55.6112 61.7779 55.7345 60.8362 56.3914 60.3314C57.1193 59.772 57.772 59.1194 58.3314 58.3914C58.8362 57.7345 59.7779 57.6112 60.4348 58.116ZM46.9453 63.7046C47.0524 62.8831 47.8052 62.304 48.6267 62.4112C49.0755 62.4697 49.5338 62.5 50 62.5C50.4661 62.5 50.9245 62.4697 51.3733 62.4112C52.1947 62.304 52.9475 62.8831 53.0547 63.7046C53.1618 64.526 52.5828 65.2788 51.7613 65.386C51.1842 65.4613 50.5962 65.5 50 65.5C49.4037 65.5 48.8158 65.4613 48.2386 65.386C47.4172 65.2788 46.8381 64.526 46.9453 63.7046ZM4.50977 48.2893C3.68134 48.2893 3.00977 48.9609 3.00977 49.7893C3.00977 50.6177 3.68134 51.2893 4.50977 51.2893H11.5525C12.381 51.2893 13.0525 50.6177 13.0525 49.7893C13.0525 48.9609 12.381 48.2893 11.5525 48.2893H4.50977ZM95.8028 51.0036C96.6312 51.0036 97.3028 50.332 97.3028 49.5036C97.3028 48.6752 96.6312 48.0036 95.8028 48.0036H88.76C87.9316 48.0036 87.26 48.6752 87.26 49.5036C87.26 50.332 87.9316 51.0036 88.76 51.0036H95.8028ZM6.35795 69.6034C5.98905 68.8616 6.26384 67.9114 6.97171 67.481L13.1346 63.7342C13.8425 63.3038 14.7153 63.5563 15.0842 64.298C15.4531 65.0398 15.1783 65.99 14.4705 66.4203L8.3076 70.1672C7.59973 70.5975 6.72684 70.3451 6.35795 69.6034ZM93.3409 31.8119C94.0487 31.3815 94.3235 30.4313 93.9546 29.6895C93.5857 28.9478 92.7128 28.6953 92.005 29.1257L85.8421 32.8726C85.1342 33.3029 84.8594 34.2531 85.2283 34.9949C85.5972 35.7366 86.4701 35.9891 87.178 35.5587L93.3409 31.8119ZM6.35814 29.6894C5.98924 30.4312 6.26403 31.3814 6.9719 31.8118L13.1348 35.5586C13.8426 35.989 14.7155 35.7365 15.0844 34.9948C15.4533 34.253 15.1785 33.3028 14.4707 32.8725L8.30779 29.1256C7.59992 28.6952 6.72703 28.9477 6.35814 29.6894ZM93.3407 67.4811C94.0485 67.9115 94.3233 68.8617 93.9544 69.6034C93.5855 70.3452 92.7127 70.5976 92.0048 70.1673L85.8419 66.4204C85.134 65.9901 84.8592 65.0399 85.2281 64.2981C85.597 63.5563 86.4699 63.3039 87.1778 63.7343L93.3407 67.4811ZM32.4166 37C32.4166 37.6215 32.0386 38.1548 31.5 38.3823V38.5C31.5 39.3284 30.8284 40 30 40C29.1716 40 28.5 39.3284 28.5 38.5V37C28.5 36.1716 29.1716 35.5 30 35.5H30.9166C31.7451 35.5 32.4166 36.1716 32.4166 37ZM71.5 37C71.5 36.1716 70.8284 35.5 70 35.5C69.9148 35.5 69.8313 35.5071 69.75 35.5207C69.6687 35.5071 69.5852 35.5 69.5 35.5H68.5833C67.7549 35.5 67.0833 36.1716 67.0833 37C67.0833 37.8005 67.7103 38.4545 68.5 38.4977V38.5C68.5 39.3284 69.1716 40 70 40C70.8284 40 71.5 39.3284 71.5 38.5V37ZM31.5 44.5C31.5 43.6716 30.8284 43 30 43C29.1716 43 28.5 43.6716 28.5 44.5V47.5C28.5 48.3284 29.1716 49 30 49C30.8284 49 31.5 48.3284 31.5 47.5V44.5ZM71.5 44.5C71.5 43.6716 70.8284 43 70 43C69.1716 43 68.5 43.6716 68.5 44.5V47.5C68.5 48.3284 69.1716 49 70 49C70.8284 49 71.5 48.3284 71.5 47.5V44.5ZM31.5 53.5C31.5 52.6716 30.8284 52 30 52C29.1716 52 28.5 52.6716 28.5 53.5V55C28.5 55.5134 28.5221 56.0219 28.5656 56.5247C28.6369 57.3501 29.3638 57.9613 30.1891 57.89C31.0145 57.8187 31.6257 57.0918 31.5544 56.2665C31.5184 55.8494 31.5 55.4271 31.5 55V53.5ZM71.5 53.5C71.5 52.6716 70.8284 52 70 52C69.1716 52 68.5 52.6716 68.5 53.5V55C68.5 55.4271 68.4816 55.8494 68.4455 56.2665C68.3742 57.0918 68.9855 57.8187 69.8108 57.89C70.6362 57.9613 71.3631 57.3501 71.4344 56.5247C71.4778 56.0219 71.5 55.5134 71.5 55V53.5ZM32.8547 61.1287C32.5041 60.3782 31.6114 60.0539 30.8608 60.4045C30.1102 60.7551 29.786 61.6478 30.1366 62.3984C30.5699 63.3261 31.0821 64.2093 31.6644 65.0393C32.1401 65.7175 33.0756 65.8816 33.7538 65.4059C34.432 64.9301 34.5961 63.9947 34.1203 63.3165C33.6376 62.6284 33.2134 61.8967 32.8547 61.1287ZM69.8634 62.3984C70.214 61.6478 69.8897 60.7551 69.1392 60.4045C68.3886 60.0539 67.4959 60.3782 67.1453 61.1287C66.7866 61.8967 66.3623 62.6284 65.8796 63.3165C65.4039 63.9947 65.568 64.9301 66.2462 65.4059C66.9244 65.8816 67.8599 65.7175 68.3356 65.0393C68.9178 64.2093 69.43 63.3261 69.8634 62.3984ZM64.0393 69.3356C64.7175 68.8599 64.8816 67.9244 64.4058 67.2462C63.9301 66.568 62.9946 66.4039 62.3164 66.8797C61.6284 67.3623 60.8967 67.7866 60.1287 68.1453C59.3781 68.4959 59.0539 69.3886 59.4045 70.1392C59.7551 70.8898 60.6478 71.214 61.3984 70.8634C62.3261 70.43 63.2093 69.9179 64.0393 69.3356ZM37.6835 66.8797C37.0053 66.4039 36.0699 66.568 35.5941 67.2462C35.1184 67.9244 35.2825 68.8599 35.9607 69.3356C36.7907 69.9179 37.6739 70.43 38.6016 70.8634C39.3522 71.214 40.2449 70.8898 40.5955 70.1392C40.9461 69.3886 40.6218 68.4959 39.8712 68.1453C39.1033 67.7866 38.3716 67.3623 37.6835 66.8797ZM44.7335 69.4455C43.9082 69.3742 43.1813 69.9855 43.11 70.8108C43.0386 71.6362 43.6499 72.3631 44.4753 72.4344C44.9781 72.4779 45.4866 72.5 46 72.5H47.3333C48.1617 72.5 48.8333 71.8284 48.8333 71C48.8333 70.1716 48.1617 69.5 47.3333 69.5H46C45.5729 69.5 45.1505 69.4816 44.7335 69.4455ZM55.5247 72.4344C56.3501 72.3631 56.9613 71.6362 56.89 70.8108C56.8187 69.9855 56.0918 69.3742 55.2664 69.4455C54.8494 69.4816 54.427 69.5 54 69.5H52.6666C51.8382 69.5 51.1666 70.1716 51.1666 71C51.1666 71.8284 51.8382 72.5 52.6666 72.5H54C54.5133 72.5 55.0219 72.4779 55.5247 72.4344ZM33.0833 37C33.0833 36.1716 33.7549 35.5 34.5833 35.5H35.5C36.3284 35.5 37 36.1716 37 37C37 37.8284 36.3284 38.5 35.5 38.5H34.5833C33.7549 38.5 33.0833 37.8284 33.0833 37ZM64 35.5C63.1716 35.5 62.5 36.1716 62.5 37C62.5 37.8284 63.1716 38.5 64 38.5H64.9166C65.7451 38.5 66.4166 37.8284 66.4166 37C66.4166 36.1716 65.7451 35.5 64.9166 35.5H64ZM50 73.5C50.8284 73.5 51.5 74.1716 51.5 75V81C51.5 81.8284 50.8284 82.5 50 82.5C49.1716 82.5 48.5 81.8284 48.5 81V75C48.5 74.1716 49.1716 73.5 50 73.5ZM37.5749 86.686C38.0278 86.565 38.5051 86.5 39 86.5H40.75C41.5784 86.5 42.25 85.8284 42.25 85C42.25 84.1716 41.5784 83.5 40.75 83.5H39C38.2412 83.5 37.5035 83.5998 36.8002 83.7878C35.9999 84.0017 35.5245 84.8239 35.7385 85.6243C35.9524 86.4246 36.7746 86.9 37.5749 86.686ZM47.75 83.5C46.9216 83.5 46.25 84.1716 46.25 85C46.25 85.8284 46.9216 86.5 47.75 86.5H51.25C52.0784 86.5 52.75 85.8284 52.75 85C52.75 84.1716 52.0784 83.5 51.25 83.5H47.75ZM58.25 83.5C57.4216 83.5 56.75 84.1716 56.75 85C56.75 85.8284 57.4216 86.5 58.25 86.5H60C60.4948 86.5 60.9722 86.565 61.425 86.686C62.2253 86.9 63.0476 86.4246 63.2615 85.6243C63.4754 84.8239 63.0001 84.0017 62.1997 83.7878C61.4964 83.5998 60.7587 83.5 60 83.5H58.25ZM30.5 92C30.5 92.8284 31.1716 93.5 32 93.5H33.4583C34.2867 93.5 34.9583 92.8284 34.9583 92C34.9583 91.2538 34.4134 90.6348 33.6998 90.5193C33.8777 89.7369 33.406 88.9475 32.6242 88.7385C31.8239 88.5246 31.0017 88.9999 30.7878 89.8002C30.5998 90.5035 30.5 91.2413 30.5 92ZM68.2122 89.8002C67.9983 88.9999 67.176 88.5246 66.3757 88.7385C65.5939 88.9475 65.1222 89.7369 65.3002 90.5193C64.5866 90.6348 64.0416 91.2538 64.0416 92C64.0416 92.8284 64.7132 93.5 65.5416 93.5H67C67.8284 93.5 68.5 92.8284 68.5 92C68.5 91.2413 68.4002 90.5035 68.2122 89.8002ZM39.2916 90.5C38.4632 90.5 37.7916 91.1716 37.7916 92C37.7916 92.8284 38.4632 93.5 39.2916 93.5H42.2083C43.0367 93.5 43.7083 92.8284 43.7083 92C43.7083 91.1716 43.0367 90.5 42.2083 90.5H39.2916ZM48.0416 90.5C47.2132 90.5 46.5416 91.1716 46.5416 92C46.5416 92.8284 47.2132 93.5 48.0416 93.5H50.9583C51.7867 93.5 52.4583 92.8284 52.4583 92C52.4583 91.1716 51.7867 90.5 50.9583 90.5H48.0416ZM56.7916 90.5C55.9632 90.5 55.2916 91.1716 55.2916 92C55.2916 92.8284 55.9632 93.5 56.7916 93.5H59.7083C60.5367 93.5 61.2083 92.8284 61.2083 92C61.2083 91.1716 60.5367 90.5 59.7083 90.5H56.7916Z" fill="#C3BB9C"/>
</g>
</svg>
