<svg width="100" height="100" viewBox="0 0 100 100" fill="none" xmlns="http://www.w3.org/2000/svg">
<path d="M82.6528 48L90 17V8C90 4.68629 87.3137 2 84 2H49.012H15C11.6863 2 9 4.68629 9 8V17L18.0759 48" stroke="#C3BB9C" stroke-width="3" stroke-linejoin="round"/>
<path d="M23.1504 28L25.8804 38.2572C25.997 38.6952 26.3935 39 26.8468 39H36.9998" stroke="#C3BB9C" stroke-width="3" stroke-linecap="round"/>
<path d="M9 17H90" stroke="#C3BB9C" stroke-width="3"/>
<path d="M60.5703 47.1446C56.7496 46.6912 52.6798 46.5064 48.4629 46.6331C26.9335 47.2802 9.72088 55.804 10.0174 65.6716C10.314 75.5393 28.0074 83.014 49.5368 82.367C71.0662 81.7199 88.2788 73.1961 87.9822 63.3285C87.8135 57.7125 82.0097 52.8717 73.071 49.8619" stroke="#C3BB9C" stroke-width="3"/>
<path d="M27.1631 72.054C23.3781 70.1289 21.0811 67.6296 20.9973 64.8413C20.9377 62.8598 22.0026 60.9569 23.9382 59.2504" stroke="#C3BB9C" stroke-width="3"/>
<path d="M44.7987 57.8693C39.6017 58.7991 35.8935 61.1582 35.9731 63.808C36.0719 67.0973 41.9698 69.5888 49.1462 69.3732C56.3227 69.1575 62.0602 66.3162 61.9614 63.027C61.8817 60.3772 58.0385 58.245 52.7951 57.629" stroke="#C3BB9C" stroke-width="3"/>
<ellipse cx="48.9673" cy="63.4173" rx="3.25" ry="1.625" transform="rotate(-1.72145 48.9673 63.4173)" fill="#C3BB9C"/>
<path d="M47 55C47 53.8954 47.8954 53 49 53C50.1046 53 51 53.8954 51 55V64H47V55Z" fill="#C3BB9C"/>
<circle cx="4.30267" cy="40.1293" r="3" transform="rotate(-6.75323 4.30267 40.1293)" fill="#C3BB9C"/>
<path d="M5.95784 39.9338L5.01709 31.9893L8.82382 31.5385" stroke="#C3BB9C" stroke-width="3"/>
<path d="M9.31579 72L8 76.8148V98H48H91V76.8148L89.6842 72" stroke="#C3BB9C" stroke-width="3" stroke-linejoin="round"/>
<path d="M76 76.8145H91V97.9996H8V76.8145H19.5" stroke="#C3BB9C" stroke-width="3" stroke-linejoin="round"/>
<path d="M64 44L74.5 60.5" stroke="#C3BB9C" stroke-width="3" stroke-linecap="round"/>
<rect x="69.5" y="60.5" width="10" height="7" rx="1.5" stroke="#C3BB9C" stroke-width="3"/>
<path d="M71.5 67.5V72" stroke="#C3BB9C" stroke-width="3"/>
</svg>
