<svg width="100" height="100" viewBox="0 0 100 100" fill="none" xmlns="http://www.w3.org/2000/svg">
<g id="illo.EmptyFav">
<path id="Union" fill-rule="evenodd" clip-rule="evenodd" d="M50.0135 2.5C50.8419 2.5 51.5135 3.17157 51.5135 4V11.0428C51.5135 11.8712 50.8419 12.5428 50.0135 12.5428C49.1851 12.5428 48.5135 11.8712 48.5135 11.0428V4C48.5135 3.17157 49.1851 2.5 50.0135 2.5ZM50.2992 96.793C49.4707 96.793 48.7992 96.1215 48.7992 95.293V88.2503C48.7992 87.4218 49.4707 86.7503 50.2992 86.7503C51.1276 86.7503 51.7992 87.4218 51.7992 88.2503V95.293C51.7992 96.1215 51.1276 96.793 50.2992 96.793ZM32.3217 6.46195C31.8914 5.75408 30.9412 5.47929 30.1994 5.84818C29.4577 6.21707 29.2052 7.08996 29.6356 7.79783L33.3824 13.9607C33.8128 14.6686 34.763 14.9434 35.5047 14.5745C36.2465 14.2056 36.4989 13.3327 36.0686 12.6248L32.3217 6.46195ZM70.1132 93.4449C69.3715 93.8138 68.4213 93.539 67.9909 92.8311L64.2441 86.6682C63.8137 85.9604 64.0661 85.0875 64.8079 84.7186C65.5497 84.3497 66.4998 84.6245 66.9302 85.3323L70.6771 91.4952C71.1074 92.2031 70.855 93.076 70.1132 93.4449ZM67.991 6.46214C68.4214 5.75427 69.3716 5.47948 70.1133 5.84837C70.8551 6.21727 71.1075 7.09016 70.6772 7.79802L66.9303 13.9609C66.4999 14.6688 65.5497 14.9436 64.808 14.5747C64.0662 14.2058 63.8138 13.3329 64.2442 12.625L67.991 6.46214ZM30.1993 93.4447C30.9411 93.8136 31.8913 93.5388 32.3216 92.8309L36.0685 86.668C36.4989 85.9602 36.2464 85.0873 35.5047 84.7184C34.7629 84.3495 33.8127 84.6243 33.3823 85.3321L29.6355 91.495C29.2051 92.2029 29.4576 93.0758 30.1993 93.4447ZM29.8622 24.126C30.2454 24.1189 30.6373 24.1612 31.0307 24.2586L32.5838 24.6432C33.388 24.8424 34.2013 24.3519 34.4004 23.5478C34.5996 22.7436 34.1091 21.9303 33.305 21.7312L31.7519 21.3466C31.1023 21.1857 30.4493 21.1147 29.8069 21.1265C28.9786 21.1418 28.3196 21.8256 28.3348 22.6539C28.3501 23.4822 29.0339 24.1413 29.8622 24.126ZM39.5173 23.2697C38.7132 23.0705 37.8999 23.561 37.7007 24.3651C37.5016 25.1692 37.992 25.9825 38.7962 26.1817L41.9023 26.9509C42.7065 27.1501 43.5198 26.6596 43.7189 25.8555C43.9181 25.0514 43.4276 24.238 42.6235 24.0389L39.5173 23.2697ZM48.8358 25.5774C48.0317 25.3782 47.2184 25.8687 47.0192 26.6728C46.8201 27.4769 47.3105 28.2903 48.1147 28.4894L51.2208 29.2586C52.025 29.4578 52.8383 28.9674 53.0374 28.1632C53.2366 27.3591 52.7461 26.5458 51.942 26.3466L48.8358 25.5774ZM58.1543 27.8851C57.3502 27.686 56.5369 28.1764 56.3377 28.9805C56.1386 29.7847 56.629 30.598 57.4332 30.7971L60.5393 31.5664C61.3435 31.7655 62.1568 31.2751 62.3559 30.4709C62.5551 29.6668 62.0646 28.8535 61.2605 28.6543L58.1543 27.8851ZM67.4728 30.1928C66.6687 29.9937 65.8554 30.4841 65.6562 31.2883C65.4571 32.0924 65.9475 32.9057 66.7516 33.1048L69.8578 33.8741C70.662 34.0732 71.4753 33.5828 71.6744 32.7787C71.8736 31.9745 71.3831 31.1612 70.579 30.9621L67.4728 30.1928ZM76.7913 32.5005C75.9872 32.3014 75.1739 32.7918 74.9747 33.596C74.7756 34.4001 75.266 35.2134 76.0701 35.4126L77.6232 35.7972C78.0166 35.8946 78.383 36.0401 78.7186 36.2252C79.444 36.6253 80.3564 36.3615 80.7564 35.6361C81.1565 34.9106 80.8927 33.9982 80.1673 33.5982C79.6047 33.2879 78.994 33.046 78.3444 32.8852L76.7913 32.5005ZM26.009 26.4495C26.409 25.7241 26.1453 24.8117 25.4198 24.4117C24.6944 24.0116 23.782 24.2754 23.382 25.0008C23.0717 25.5635 22.8298 26.1742 22.6689 26.8237L22.2549 28.4954C22.0558 29.2996 22.5462 30.1129 23.3503 30.312C24.1545 30.5112 24.9678 30.0207 25.1669 29.2166L25.5809 27.5449C25.6784 27.1515 25.8239 26.7852 26.009 26.4495ZM84.0416 40.0232C84.0264 39.1949 83.3425 38.5358 82.5142 38.5511C81.686 38.5663 81.0269 39.2502 81.0421 40.0785C81.0492 40.4617 81.007 40.8536 80.9095 41.247L80.4955 42.9187C80.2964 43.7228 80.7868 44.5362 81.591 44.7353C82.3951 44.9344 83.2084 44.444 83.4076 43.6399L83.8216 41.9681C83.9824 41.3186 84.0535 40.6656 84.0416 40.0232ZM81.7516 50.3268C81.9507 49.5226 81.4603 48.7093 80.6561 48.5102C79.852 48.311 79.0387 48.8015 78.8395 49.6056L78.0115 52.949C77.8124 53.7532 78.3028 54.5665 79.107 54.7656C79.9111 54.9648 80.7244 54.4743 80.9236 53.6702L81.7516 50.3268ZM23.5109 35.9035C23.7101 35.0994 23.2196 34.286 22.4155 34.0869C21.6114 33.8878 20.7981 34.3782 20.5989 35.1823L19.7709 38.5258C19.5718 39.3299 20.0622 40.1432 20.8663 40.3424C21.6705 40.5415 22.4838 40.0511 22.6829 39.2469L23.5109 35.9035ZM21.0269 45.9338C21.2261 45.1297 20.7356 44.3164 19.9315 44.1172C19.1274 43.9181 18.314 44.4085 18.1149 45.2127L17.2869 48.5561C17.0878 49.3602 17.5782 50.1736 18.3823 50.3727C19.1865 50.5718 19.9998 50.0814 20.1989 49.2773L21.0269 45.9338ZM79.2676 60.3571C79.4667 59.5529 78.9763 58.7396 78.1721 58.5405C77.368 58.3413 76.5547 58.8318 76.3555 59.6359L75.5275 62.9794C75.3284 63.7835 75.8188 64.5968 76.623 64.796C77.4271 64.9951 78.2404 64.5047 78.4396 63.7005L79.2676 60.3571ZM18.5429 55.9642C18.7421 55.16 18.2516 54.3467 17.4475 54.1476C16.6434 53.9484 15.83 54.4389 15.6309 55.243L15.2169 56.9147C15.1421 57.2166 15.1089 57.5213 15.1144 57.8219C15.1267 58.4869 15.5699 59.0429 16.1729 59.2283C16.0555 59.8481 16.3403 60.4996 16.9228 60.8208C17.186 60.9659 17.471 61.0787 17.7729 61.1534L19.2829 61.5274C20.087 61.7265 20.9003 61.2361 21.0995 60.4319C21.2986 59.6278 20.8082 58.8145 20.004 58.6153L18.4941 58.2414C18.4483 58.2301 18.4077 58.2137 18.3715 58.1937C18.2796 58.1431 18.1847 58.1031 18.0883 58.0733C18.1069 57.9741 18.1158 57.8715 18.1139 57.7666C18.1131 57.7252 18.1176 57.6816 18.1289 57.6359L18.5429 55.9642ZM76.7836 70.3874C76.9827 69.5833 76.4923 68.77 75.6881 68.5708C74.884 68.3717 74.0707 68.8621 73.8715 69.6662L73.4575 71.338C73.4462 71.3837 73.4298 71.4244 73.4098 71.4606C73.3592 71.5525 73.3192 71.6473 73.2894 71.7438C73.1902 71.7251 73.0876 71.7162 72.9827 71.7182C72.9413 71.7189 72.8977 71.7144 72.852 71.7031L71.342 71.3292C70.5379 71.13 69.7246 71.6205 69.5254 72.4246C69.3263 73.2287 69.8167 74.0421 70.6209 74.2412L72.1308 74.6151C72.4327 74.6899 72.7374 74.7232 73.038 74.7177C73.703 74.7054 74.259 74.2621 74.4444 73.6592C75.0642 73.7766 75.7157 73.4917 76.0369 72.9093C76.182 72.6461 76.2948 72.361 76.3696 72.0591L76.7836 70.3874ZM27.5507 59.1107C28.3001 59.2963 28.7771 60.0154 28.6773 60.7633L29.0637 60.859C29.8678 61.0581 30.3583 61.8714 30.1591 62.6756C29.96 63.4797 29.1466 63.9701 28.3425 63.771L25.3226 63.0231C24.5185 62.824 24.0281 62.0107 24.2272 61.2065C24.4041 60.4923 25.0656 60.0255 25.7747 60.0696C26.0274 59.3475 26.7931 58.9231 27.5507 59.1107ZM35.1034 62.3547C34.2993 62.1556 33.486 62.646 33.2868 63.4501C33.0877 64.2543 33.5781 65.0676 34.3823 65.2667L37.4022 66.0146C38.2063 66.2138 39.0196 65.7233 39.2188 64.9192C39.4179 64.115 38.9275 63.3017 38.1233 63.1026L35.1034 62.3547ZM44.1631 64.5983C43.359 64.3992 42.5456 64.8896 42.3465 65.6938C42.1474 66.4979 42.6378 67.3112 43.4419 67.5104L46.4618 68.2582C47.266 68.4574 48.0793 67.9669 48.2784 67.1628C48.4776 66.3587 47.9871 65.5453 47.183 65.3462L44.1631 64.5983ZM53.2227 66.8419C52.4186 66.6428 51.6053 67.1332 51.4061 67.9374C51.207 68.7415 51.6974 69.5548 52.5016 69.754L55.5215 70.5018C56.3256 70.701 57.1389 70.2105 57.3381 69.4064C57.5372 68.6023 57.0468 67.789 56.2426 67.5898L53.2227 66.8419ZM62.2824 69.0856C61.4783 68.8864 60.6649 69.3769 60.4658 70.181C60.2667 70.9851 60.7571 71.7984 61.5612 71.9976L64.5811 72.7455C65.3853 72.9446 66.1986 72.4542 66.3977 71.65C66.5746 70.9358 66.2074 70.2142 65.5596 69.9223C65.6731 69.1657 65.194 68.433 64.4364 68.2454C63.687 68.0598 62.9295 68.4732 62.6688 69.1812L62.2824 69.0856ZM33.2764 52.6304C33.0568 52.576 32.839 52.5526 32.6268 52.5565C31.7985 52.5718 31.1146 51.9127 31.0994 51.0844C31.0841 50.2561 31.7432 49.5723 32.5715 49.557C33.0429 49.5483 33.5218 49.6005 33.9975 49.7183L35.6153 50.119C36.4195 50.3181 36.9099 51.1314 36.7108 51.9356C36.5116 52.7397 35.6983 53.2301 34.8942 53.031L33.2764 52.6304ZM40.2699 52.817C40.469 52.0129 41.2824 51.5224 42.0865 51.7216L45.3221 52.5228C46.1262 52.722 46.6167 53.5353 46.4175 54.3394C46.2184 55.1436 45.4051 55.634 44.6009 55.4349L41.3653 54.6336C40.5612 54.4344 40.0708 53.6211 40.2699 52.817ZM49.9767 55.2209C50.1758 54.4167 50.9891 53.9263 51.7933 54.1254L55.0289 54.9267C55.833 55.1259 56.3234 55.9392 56.1243 56.7433C55.9252 57.5475 55.1118 58.0379 54.3077 57.8388L51.0721 57.0375C50.268 56.8383 49.7775 56.025 49.9767 55.2209ZM59.6834 57.6247C59.8826 56.8206 60.6959 56.3302 61.5 56.5293L63.1178 56.93C63.5936 57.0478 64.0414 57.2251 64.4543 57.4528C65.1798 57.8529 65.4436 58.7652 65.0435 59.4907C64.6435 60.2161 63.7311 60.4799 63.0056 60.0798C62.8197 59.9773 62.6162 59.8964 62.3967 59.842L60.7789 59.4413C59.9747 59.2422 59.4843 58.4289 59.6834 57.6247ZM29.8974 51.8092C30.6228 52.2093 30.8866 53.1217 30.4866 53.8471C30.384 54.033 30.3031 54.2365 30.2487 54.4561L29.9282 55.7503C29.729 56.5545 28.9157 57.0449 28.1116 56.8458C27.3075 56.6466 26.817 55.8333 27.0162 55.0292L27.3367 53.7349C27.4545 53.2592 27.6318 52.8113 27.8595 52.3984C28.2596 51.673 29.172 51.4092 29.8974 51.8092ZM65.7683 60.6927C66.5966 60.6774 67.2804 61.3365 67.2957 62.1648C67.3044 62.6362 67.2522 63.1151 67.1344 63.5908L66.8139 64.885C66.6148 65.6892 65.8014 66.1796 64.9973 65.9805C64.1932 65.7813 63.7027 64.968 63.9019 64.1639L64.2224 62.8696C64.2768 62.6501 64.3001 62.4323 64.2962 62.2201C64.281 61.3918 64.94 60.7079 65.7683 60.6927ZM36.8822 38.0702C34.4698 37.4728 32.0298 38.9441 31.4324 41.3565C30.835 43.7689 32.3063 46.2089 34.7187 46.8063C37.1311 47.4037 39.5711 45.9324 40.1685 43.52C40.7659 41.1076 39.2946 38.6676 36.8822 38.0702ZM34.3444 42.0777C34.5436 41.2735 35.3569 40.7831 36.161 40.9822C36.9652 41.1814 37.4556 41.9947 37.2565 42.7988C37.0573 43.603 36.244 44.0934 35.4399 43.8943C34.6357 43.6951 34.1453 42.8818 34.3444 42.0777ZM60.5527 48.5681C61.1501 46.1557 63.5901 44.6844 66.0025 45.2818C68.4149 45.8793 69.8862 48.3192 69.2888 50.7316C68.6914 53.144 66.2514 54.6153 63.839 54.0179C61.4266 53.4205 59.9553 50.9805 60.5527 48.5681ZM65.2813 48.1939C64.4772 47.9947 63.6639 48.4852 63.4647 49.2893C63.2656 50.0934 63.756 50.9067 64.5602 51.1059C65.3643 51.305 66.1776 50.8146 66.3768 50.0105C66.5759 49.2063 66.0855 48.393 65.2813 48.1939ZM44.4118 43.0255C43.6076 42.8264 42.7943 43.3168 42.5952 44.121C42.396 44.9251 42.8865 45.7384 43.6906 45.9376L56.3094 49.0626C57.1135 49.2617 57.9269 48.7713 58.126 47.9672C58.3251 47.163 57.8347 46.3497 57.0306 46.1506L44.4118 43.0255Z" fill="#C3BB9C"/>
</g>
</svg>
