<svg width="100" height="100" viewBox="0 0 100 100" fill="none" xmlns="http://www.w3.org/2000/svg">
<path fill-rule="evenodd" clip-rule="evenodd" d="M21.3389 14.2204C20.7972 13.5936 19.85 13.5245 19.2232 14.0662C18.5963 14.6078 18.5273 15.555 19.0689 16.1819L23.6736 21.5108C24.2152 22.1376 25.1624 22.2067 25.7893 21.6651C26.4161 21.1234 26.4852 20.1762 25.9435 19.5494L21.3389 14.2204ZM78.9737 85.0725C79.5153 85.6993 80.4626 85.7684 81.0894 85.2267C81.7162 84.6851 81.7853 83.7379 81.2437 83.111L76.639 77.7821C76.0974 77.1552 75.1501 77.0862 74.5233 77.6278C73.8965 78.1695 73.8274 79.1167 74.369 79.7435L78.9737 85.0725ZM6.41983 29.5543C6.7399 28.7902 7.63853 28.3769 8.42698 28.6311L15.2914 30.8445C16.0799 31.0988 16.4596 31.9243 16.1395 32.6884C15.8194 33.4525 14.9208 33.8658 14.1324 33.6116L7.26791 31.3981C6.47946 31.1439 6.09976 30.3184 6.41983 29.5543ZM91.8856 70.6618C92.674 70.916 93.5727 70.5027 93.8927 69.7386C94.2128 68.9745 93.8331 68.149 93.0447 67.8948L86.1802 65.6813C85.3918 65.4271 84.4931 65.8404 84.1731 66.6045C83.853 67.3686 84.2327 68.1941 85.0211 68.4484L91.8856 70.6618ZM36.621 3.45817C35.8186 3.66402 35.2793 4.49319 35.4165 5.31018L36.6108 12.4231C36.7479 13.2401 37.5096 13.7355 38.3121 13.5297C39.1145 13.3238 39.6538 12.4947 39.5167 11.6777L38.3224 4.56475C38.1852 3.74775 37.4235 3.25232 36.621 3.45817ZM64.8961 93.9827C65.0333 94.7997 64.494 95.6289 63.6915 95.8347C62.8891 96.0406 62.1274 95.5451 61.9902 94.7281L60.7959 87.6152C60.6587 86.7982 61.198 85.9691 62.0005 85.7632C62.8029 85.5574 63.5646 86.0528 63.7018 86.8698L64.8961 93.9827ZM48.5591 22.5371C49.0362 22.5125 49.5166 22.5 50 22.5C50.4834 22.5 50.9638 22.5125 51.4409 22.5371C52.2682 22.5797 52.9734 21.9436 53.0161 21.1163C53.0588 20.289 52.4227 19.5837 51.5954 19.541C51.0669 19.5138 50.535 19.5 50 19.5C49.465 19.5 48.9331 19.5138 48.4046 19.541C47.5773 19.5837 46.9412 20.289 46.9839 21.1163C47.0265 21.9436 47.7318 22.5797 48.5591 22.5371ZM57.8958 20.5323C57.0955 20.3184 56.2733 20.7937 56.0593 21.5941C55.8454 22.3944 56.3208 23.2166 57.1211 23.4306C58.0539 23.6799 58.9672 23.9771 59.8581 24.3193C60.6314 24.6164 61.4992 24.2303 61.7962 23.4569C62.0933 22.6836 61.7072 21.8159 60.9338 21.5188C59.9449 21.139 58.9312 20.8091 57.8958 20.5323ZM42.8789 23.4306C43.6792 23.2166 44.1546 22.3944 43.9406 21.5941C43.7267 20.7937 42.9045 20.3184 42.1041 20.5323C41.0687 20.8091 40.055 21.139 39.0661 21.5188C38.2928 21.8159 37.9067 22.6836 38.2038 23.4569C38.5008 24.2303 39.3685 24.6164 40.1419 24.3193C41.0328 23.9771 41.9461 23.6799 42.8789 23.4306ZM35.0219 26.9328C35.7163 26.481 35.9129 25.5518 35.4611 24.8574C35.0092 24.1631 34.08 23.9665 33.3857 24.4183C32.4918 25 31.6303 25.6272 30.8046 26.2967C30.1611 26.8184 30.0624 27.763 30.5841 28.4065C31.1059 29.05 32.0505 29.1487 32.694 28.627C33.4388 28.0231 34.2158 27.4574 35.0219 26.9328ZM66.6143 24.4183C65.9199 23.9665 64.9908 24.1631 64.5389 24.8575C64.0871 25.5518 64.2837 26.481 64.978 26.9328C65.7841 27.4574 66.5611 28.0231 67.306 28.627C67.9495 29.1487 68.8941 29.05 69.4158 28.4065C69.9376 27.763 69.8388 26.8184 69.1953 26.2967C68.3696 25.6272 67.5082 25 66.6143 24.4183ZM28.627 32.694C29.1487 32.0505 29.05 31.1059 28.4065 30.5842C27.763 30.0624 26.8184 30.1611 26.2967 30.8046C25.6272 31.6303 25 32.4918 24.4183 33.3857C23.9665 34.0801 24.1631 35.0092 24.8574 35.4611C25.5518 35.9129 26.481 35.7163 26.9328 35.0219C27.4574 34.2158 28.0231 33.4389 28.627 32.694ZM73.7033 30.8046C73.1816 30.1611 72.237 30.0624 71.5935 30.5842C70.95 31.1059 70.8512 32.0505 71.373 32.694C71.9769 33.4389 72.5426 34.2158 73.0672 35.0219C73.519 35.7163 74.4482 35.9129 75.1425 35.4611C75.8369 35.0092 76.0335 34.0801 75.5817 33.3857C75 32.4918 74.3727 31.6303 73.7033 30.8046ZM24.3193 40.1419C24.6164 39.3686 24.2303 38.5008 23.4569 38.2038C22.6836 37.9067 21.8159 38.2928 21.5188 39.0661C21.1389 40.055 20.8091 41.0688 20.5323 42.1042C20.3184 42.9045 20.7937 43.7267 21.5941 43.9406C22.3944 44.1546 23.2166 43.6792 23.4305 42.8789C23.6799 41.9461 23.9771 41.0328 24.3193 40.1419ZM78.4812 39.0661C78.1841 38.2928 77.3164 37.9067 76.543 38.2038C75.7697 38.5008 75.3836 39.3686 75.6807 40.1419C76.0229 41.0328 76.3201 41.9461 76.5694 42.8789C76.7834 43.6792 77.6056 44.1546 78.4059 43.9406C79.2062 43.7267 79.6816 42.9045 79.4677 42.1042C79.1909 41.0687 78.861 40.055 78.4812 39.0661ZM22.537 48.5591C22.5797 47.7318 21.9436 47.0265 21.1163 46.9839C20.289 46.9412 19.5837 47.5773 19.541 48.4046C19.5138 48.9331 19.5 49.465 19.5 50C19.5 50.535 19.5138 51.0669 19.541 51.5954C19.5837 52.4227 20.289 53.0588 21.1163 53.0161C21.9436 52.9735 22.5797 52.2682 22.537 51.4409C22.5124 50.9638 22.5 50.4834 22.5 50C22.5 49.5166 22.5124 49.0362 22.537 48.5591ZM80.4589 48.4046C80.4163 47.5773 79.711 46.9412 78.8837 46.9839C78.0564 47.0265 77.4203 47.7318 77.4629 48.5591C77.4875 49.0362 77.5 49.5166 77.5 50C77.5 50.4834 77.4875 50.9638 77.4629 51.4409C77.4203 52.2682 78.0564 52.9735 78.8837 53.0161C79.711 53.0588 80.4163 52.4227 80.4589 51.5954C80.4862 51.0669 80.5 50.535 80.5 50C80.5 49.465 80.4862 48.9331 80.4589 48.4046ZM79.4677 57.8958C79.6816 57.0955 79.2062 56.2733 78.4059 56.0594C77.6056 55.8454 76.7834 56.3208 76.5694 57.1211C76.3201 58.0539 76.0229 58.9672 75.6807 59.8581C75.3836 60.6314 75.7697 61.4992 76.543 61.7962C77.3164 62.0933 78.1841 61.7072 78.4812 60.9339C78.861 59.945 79.1909 58.9312 79.4677 57.8958ZM23.4305 57.1211C23.2166 56.3208 22.3944 55.8454 21.5941 56.0594C20.7937 56.2733 20.3184 57.0955 20.5323 57.8958C20.8091 58.9312 21.1389 59.945 21.5188 60.9339C21.8159 61.7072 22.6836 62.0933 23.4569 61.7962C24.2303 61.4992 24.6164 60.6314 24.3193 59.8581C23.9771 58.9672 23.6799 58.0539 23.4305 57.1211ZM26.9328 64.978C26.481 64.2837 25.5518 64.0871 24.8574 64.5389C24.1631 64.9908 23.9665 65.9199 24.4183 66.6143C25 67.5082 25.6272 68.3697 26.2967 69.1954C26.8184 69.8389 27.763 69.9376 28.4065 69.4158C29.05 68.8941 29.1487 67.9495 28.627 67.306C28.0231 66.5611 27.4574 65.7842 26.9328 64.978ZM75.5817 66.6143C76.0335 65.9199 75.8369 64.9908 75.1425 64.5389C74.4482 64.0871 73.519 64.2837 73.0672 64.9781C72.5426 65.7842 71.9769 66.5611 71.373 67.306C70.8512 67.9495 70.95 68.8941 71.5935 69.4158C72.237 69.9376 73.1816 69.8389 73.7033 69.1954C74.3727 68.3697 75 67.5082 75.5817 66.6143ZM32.694 71.373C32.0505 70.8513 31.1059 70.95 30.5841 71.5935C30.0624 72.237 30.1611 73.1816 30.8046 73.7033C31.6303 74.3727 32.4918 75 33.3857 75.5817C34.08 76.0335 35.0092 75.8369 35.4611 75.1425C35.9129 74.4482 35.7163 73.519 35.0219 73.0672C34.2158 72.5426 33.4388 71.9769 32.694 71.373ZM69.1953 73.7033C69.8388 73.1816 69.9376 72.237 69.4158 71.5935C68.8941 70.95 67.9495 70.8513 67.306 71.373C66.5611 71.9769 65.7841 72.5426 64.978 73.0672C64.2837 73.519 64.0871 74.4482 64.5389 75.1425C64.9908 75.8369 65.9199 76.0335 66.6143 75.5817C67.5082 75 68.3696 74.3728 69.1953 73.7033ZM40.1419 75.6807C39.3685 75.3836 38.5008 75.7697 38.2038 76.5431C37.9067 77.3164 38.2928 78.1841 39.0661 78.4812C40.055 78.861 41.0687 79.1909 42.1041 79.4677C42.9045 79.6816 43.7267 79.2063 43.9406 78.4059C44.1546 77.6056 43.6792 76.7834 42.8789 76.5694C41.9461 76.3201 41.0328 76.0229 40.1419 75.6807ZM60.9338 78.4812C61.7072 78.1841 62.0933 77.3164 61.7962 76.5431C61.4992 75.7697 60.6314 75.3836 59.8581 75.6807C58.9672 76.0229 58.0539 76.3201 57.1211 76.5694C56.3208 76.7834 55.8454 77.6056 56.0594 78.4059C56.2733 79.2063 57.0955 79.6816 57.8958 79.4677C58.9312 79.1909 59.9449 78.861 60.9338 78.4812ZM48.5591 77.4629C47.7318 77.4203 47.0265 78.0564 46.9839 78.8837C46.9412 79.711 47.5773 80.4163 48.4046 80.459C48.9331 80.4862 49.465 80.5 50 80.5C50.535 80.5 51.0669 80.4862 51.5954 80.459C52.4227 80.4163 53.0588 79.711 53.0161 78.8837C52.9734 78.0564 52.2682 77.4203 51.4409 77.4629C50.9638 77.4875 50.4834 77.5 50 77.5C49.5166 77.5 49.0362 77.4875 48.5591 77.4629ZM49.0185 42.5635C49.3391 42.5217 49.6666 42.5 50 42.5C50.3333 42.5 50.6609 42.5217 50.9815 42.5635C51.8029 42.6706 52.5557 42.0916 52.6629 41.2701C52.77 40.4486 52.191 39.6958 51.3695 39.5887C50.9206 39.5301 50.4634 39.5 50 39.5C49.5365 39.5 49.0794 39.5301 48.6305 39.5887C47.809 39.6958 47.23 40.4486 47.3371 41.2701C47.4443 42.0916 48.1971 42.6706 49.0185 42.5635ZM45.4349 44.0488C46.0918 43.544 46.2151 42.6023 45.7103 41.9454C45.2055 41.2885 44.2638 41.1652 43.6069 41.67C42.8801 42.2286 42.2286 42.8801 41.67 43.607C41.1652 44.2638 41.2885 45.2055 41.9454 45.7103C42.6023 46.2151 43.544 46.0918 44.0488 45.4349C44.4485 44.9148 44.9148 44.4485 45.4349 44.0488ZM56.393 41.67C55.7362 41.1652 54.7944 41.2885 54.2897 41.9454C53.7849 42.6023 53.9082 43.544 54.5651 44.0488C55.0852 44.4485 55.5515 44.9148 55.9512 45.4349C56.456 46.0918 57.3977 46.2151 58.0546 45.7103C58.7114 45.2055 58.8347 44.2638 58.33 43.607C57.7714 42.8801 57.1199 42.2286 56.393 41.67ZM60.4113 48.6305C60.3042 47.809 59.5514 47.23 58.7299 47.3371C57.9084 47.4443 57.3294 48.1971 57.4365 49.0185C57.4783 49.3391 57.5 49.6666 57.5 50C57.5 50.3334 57.4783 50.6609 57.4365 50.9815C57.3294 51.8029 57.9084 52.5557 58.7299 52.6629C59.5514 52.77 60.3042 52.191 60.4113 51.3695C60.4699 50.9206 60.5 50.4635 60.5 50C60.5 49.5365 60.4699 49.0794 60.4113 48.6305ZM42.5635 49.0185C42.6706 48.1971 42.0915 47.4443 41.2701 47.3371C40.4486 47.23 39.6958 47.809 39.5887 48.6305C39.5301 49.0794 39.5 49.5365 39.5 50C39.5 50.4635 39.5301 50.9206 39.5887 51.3695C39.6958 52.191 40.4486 52.77 41.2701 52.6629C42.0915 52.5557 42.6706 51.8029 42.5635 50.9815C42.5216 50.6609 42.5 50.3334 42.5 50C42.5 49.6666 42.5216 49.3391 42.5635 49.0185ZM44.0488 54.5651C43.544 53.9082 42.6023 53.7849 41.9454 54.2897C41.2885 54.7945 41.1652 55.7362 41.67 56.393C42.2286 57.1199 42.8801 57.7714 43.6069 58.33C44.2638 58.8348 45.2055 58.7115 45.7103 58.0546C46.2151 57.3977 46.0918 56.456 45.4349 55.9512C44.9148 55.5515 44.4485 55.0852 44.0488 54.5651ZM58.33 56.393C58.8347 55.7362 58.7114 54.7945 58.0546 54.2897C57.3977 53.7849 56.456 53.9082 55.9512 54.5651C55.5515 55.0852 55.0852 55.5515 54.5651 55.9512C53.9082 56.456 53.7849 57.3977 54.2897 58.0546C54.7944 58.7115 55.7362 58.8348 56.393 58.33C57.1199 57.7714 57.7714 57.1199 58.33 56.393ZM49.0185 57.4365C48.1971 57.3294 47.4443 57.9084 47.3371 58.7299C47.23 59.5514 47.809 60.3042 48.6305 60.4113C49.0794 60.4699 49.5365 60.5 50 60.5C50.4634 60.5 50.9206 60.4699 51.3695 60.4113C52.191 60.3042 52.77 59.5514 52.6629 58.7299C52.5557 57.9084 51.8029 57.3294 50.9815 57.4365C50.6609 57.4783 50.3333 57.5 50 57.5C49.6666 57.5 49.3391 57.4783 49.0185 57.4365ZM50 52C51.1046 52 52 51.1046 52 50C52 48.8954 51.1046 48 50 48C48.8954 48 48 48.8954 48 50C48 51.1046 48.8954 52 50 52Z" fill="#C3BB9C"/>
</svg>
