<svg width="24" height="24" viewBox="0 0 24 24" fill="none" xmlns="http://www.w3.org/2000/svg">
    <path d="M21 3H3C1.9 3 1 3.9 1 5V10H3V5H21V19V21C22.1 21 23 20.1 23 19V5C23 3.9 22.1 3 21 3Z" fill="currentColor"/>
    <path d="M1 21V18.5455C2.35818 18.5455 3.45455 19.6418 3.45455 21H1Z" fill="currentColor"/>
    <path d="M1 16.9091V15.2727C4.16636 15.2727 6.72727 17.8336 6.72727 21H5.09091C5.09091 18.7418 3.25818 16.9091 1 16.9091Z" fill="currentColor"/>
    <path d="M1 13.6364V12C5.96636 12 10 16.0255 10 21H8.36364C8.36364 16.9336 5.06636 13.6364 1 13.6364Z" fill="currentColor"/>
    <path d="M20 11.0017L15.9541 7H15.2464V12.3083L12.0026 9.1L11 10.0917L14.9633 14L11.0118 17.9083L12.0144 18.9L15.2582 15.6917V21H15.9659L20 16.9983L16.9567 14L20 11.0017ZM16.6619 9.68333L17.9948 11.0017L16.6619 12.32V9.68333ZM17.9948 16.9983L16.6619 18.3167V15.68L17.9948 16.9983Z" fill="currentColor"/>
</svg>
