<svg width="24" height="24" viewBox="0 0 24 24" fill="none" xmlns="http://www.w3.org/2000/svg">
<path fill-rule="evenodd" clip-rule="evenodd" d="M3 3H21C22.1 3 23 3.9 23 5V19C23 20.1 22.1 21 21 21H15.9659L20 16.9983L16.9567 14L20 11.0017L15.9541 7H15.2464V12.3083L12.0026 9.1L11 10.0917L14.9633 14L11.0118 17.9083L12.0144 18.9L15.2582 15.6917V21H8.36364C8.36364 16.9336 5.06636 13.6364 1 13.6364V5C1 3.9 1.9 3 3 3ZM1 15.2727V16.9091C3.25818 16.9091 5.09091 18.7418 5.09091 21H6.72727C6.72727 17.8336 4.16636 15.2727 1 15.2727ZM1 18.5455V21H3.45455C3.45455 19.6418 2.35818 18.5455 1 18.5455ZM17.9948 11.0017L16.6619 9.68333V12.32L17.9948 11.0017ZM16.6619 18.3167L17.9948 16.9983L16.6619 15.68V18.3167Z" fill="black"/>
</svg>
