<svg width="37" height="44" viewBox="0 0 37 44" fill="none" xmlns="http://www.w3.org/2000/svg">
<g id="Primary logo">
<path id="Vector" d="M10.5244 35.9673L9.60971 32.0898V35.9673H8.04749V27.9346H9.59943V32.0898L10.4833 27.9346H11.9942L11.0692 32.0795L12.0764 35.9673H10.5244Z" fill="black"/>
<path id="Vector_2" d="M13.9572 35.9673V27.9346H17.39V29.3025H15.6633V31.0613H16.7939V32.6452H15.6633V34.5582H17.39V35.9673H13.9572Z" fill="black"/>
<path id="Vector_3" d="M12.0969 9.99719H8.02692V26.3609H12.0969V9.99719Z" fill="black"/>
<path id="Vector_4" d="M28.9525 11.6531H24.8825V26.3609H28.9525V11.6531Z" fill="black"/>
<path id="Vector_5" d="M23.3306 8.03271H19.2606V26.3609H23.3306V8.03271Z" fill="black"/>
<path id="Vector_6" d="M17.7086 14.3993H13.6386V26.361H17.7086V14.3993Z" fill="black"/>
<path id="Vector_7" d="M21.8094 35.9673L21.2647 33.4577L20.6275 35.9673H19.1578L20.3911 31.9766L19.2606 27.9346H20.8228L21.3469 30.5881L21.9739 27.9346H23.4333L22.2308 31.7709L23.4025 35.9673C23.3922 35.9673 21.8094 35.9673 21.8094 35.9673Z" fill="black"/>
<path id="Vector_8" d="M27.4006 32.9435H26.7942V35.9673H25.2422V27.9346H27.4006C28.2125 27.9346 28.9217 28.418 28.9217 29.5391V31.339C28.9217 32.4601 28.2125 32.9435 27.4006 32.9435ZM27.4622 29.6008C27.4622 29.3334 27.3492 29.2408 27.1847 29.2408H26.8045V31.7504H27.1847C27.3595 31.7504 27.4622 31.6578 27.4622 31.4007V29.6008Z" fill="black"/>
</g>
</svg>
