<svg width="21" height="20" viewBox="0 0 21 20" fill="none" xmlns="http://www.w3.org/2000/svg">
<g id="Icon">
<path id="Vector" d="M10.3333 10C10.7935 10 11.1666 9.62694 11.1666 9.16671C11.1666 8.70647 10.7935 8.33337 10.3333 8.33337C9.87303 8.33337 9.49994 8.70647 9.49994 9.16671C9.49994 9.62694 9.87303 10 10.3333 10Z" stroke="black" stroke-width="2" stroke-linecap="round" stroke-linejoin="round"/>
<path id="Vector_2" d="M9.49994 14.1667C9.49994 13.9457 9.58774 13.7337 9.74402 13.5775C9.9003 13.4212 10.1123 13.3334 10.3333 13.3334C10.5543 13.3334 10.7662 13.4212 10.9225 13.5775C11.0788 13.7337 11.1666 13.9457 11.1666 14.1667C11.1666 14.5834 10.8833 16.6667 10.7499 17.9167C10.7499 18.0272 10.706 18.1332 10.6279 18.2113C10.5498 18.2895 10.4438 18.3334 10.3333 18.3334C10.2228 18.3334 10.1168 18.2895 10.0386 18.2113C9.9605 18.1332 9.91661 18.0272 9.91661 17.9167C9.78327 16.6667 9.49994 14.5834 9.49994 14.1667Z" stroke="black" stroke-width="2" stroke-linecap="round" stroke-linejoin="round"/>
<path id="Vector_3" d="M6.99996 11.6667C6.53568 11.0476 6.25296 10.3115 6.18346 9.54086C6.11397 8.77018 6.26046 7.99538 6.60651 7.30328C6.95257 6.61117 7.48451 6.0291 8.14275 5.62229C8.80098 5.21548 9.5595 5 10.3333 5C11.1071 5 11.8656 5.21548 12.5238 5.62229C13.1821 6.0291 13.714 6.61117 14.0601 7.30328C14.4061 7.99538 14.5526 8.77018 14.4831 9.54086C14.4136 10.3115 14.1309 11.0476 13.6666 11.6667" stroke="black" stroke-width="2" stroke-linecap="round" stroke-linejoin="round"/>
<path id="Vector_4" d="M14.4999 15.4166C15.8378 14.5227 16.8527 13.2223 17.3948 11.7073C17.9369 10.1923 17.9774 8.54322 17.5104 7.00347C17.0433 5.46373 16.0934 4.11501 14.8011 3.15651C13.5087 2.198 11.9423 1.68054 10.3333 1.68054C8.72426 1.68054 7.15789 2.198 5.86551 3.15651C4.57313 4.11501 3.62327 5.46373 3.15621 7.00347C2.68915 8.54322 2.72965 10.1923 3.27174 11.7073C3.81382 13.2223 4.82874 14.5227 6.16662 15.4166" stroke="black" stroke-width="2" stroke-linecap="round" stroke-linejoin="round"/>
</g>
</svg>
