<svg width="20" height="20" viewBox="0 0 20 20" fill="none" xmlns="http://www.w3.org/2000/svg">
<g id="Icon">
<path id="Vector" d="M9.99998 11.6667C10.9205 11.6667 11.6666 10.9205 11.6666 10C11.6666 9.07957 10.9205 8.33337 9.99998 8.33337C9.07951 8.33337 8.33331 9.07957 8.33331 10C8.33331 10.9205 9.07951 11.6667 9.99998 11.6667Z" stroke="black" stroke-width="2" stroke-linecap="round" stroke-linejoin="round"/>
<path id="Vector_2" d="M4.10834 15.8916C2.54609 14.3289 1.66846 12.2096 1.66846 9.99994C1.66846 7.79024 2.54609 5.67101 4.10834 4.10828" stroke="black" stroke-width="2" stroke-linecap="round" stroke-linejoin="round"/>
<path id="Vector_3" d="M6.46667 13.5334C6.00225 13.0682 5.63412 12.516 5.38334 11.9084C4.87637 10.6838 4.87637 9.30798 5.38334 8.08337C5.63412 7.47576 6.00225 6.92356 6.46667 6.45837" stroke="black" stroke-width="2" stroke-linecap="round" stroke-linejoin="round"/>
<path id="Vector_4" d="M13.5333 6.46667C14.0023 6.94413 14.3707 7.51088 14.6167 8.13334C15.1236 9.35795 15.1236 10.7337 14.6167 11.9583C14.3659 12.566 13.9977 13.1182 13.5333 13.5833" stroke="black" stroke-width="2" stroke-linecap="round" stroke-linejoin="round"/>
<path id="Vector_5" d="M15.8917 4.10828C17.4539 5.67101 18.3315 7.79024 18.3315 9.99994C18.3315 12.2096 17.4539 14.3289 15.8917 15.8916" stroke="black" stroke-width="2" stroke-linecap="round" stroke-linejoin="round"/>
</g>
</svg>
