<svg width="58" height="30" viewBox="0 0 58 30" fill="none" xmlns="http://www.w3.org/2000/svg">
    <g clip-path="url(#clip0_12301_28901)">
        <path d="M3.43022 3.36525H54.5698V26.6347H3.43022V3.36525ZM0 30H58V0H0V30Z" fill="#FBAD18"/>
        <path d="M12.0267 23.3926L10.0815 15.3078V19.1655V23.3926H6.75586V6.62793H10.0815V15.3078L11.943 6.62793H15.1432L13.198 15.2873L15.3314 23.3926H12.0267Z" fill="#FBAD18"/>
        <path d="M19.3267 23.3926V6.62793H26.6263V9.48019H22.966V13.1327H25.3714V16.4364H22.966V20.4378H26.6263V23.3926H19.3267Z" fill="#FBAD18"/>
        <path d="M36.0589 23.3926L34.9086 18.1601L33.549 23.3926H30.4116L33.0261 15.0616L30.6208 6.62793H33.9464L35.055 12.1683L36.3936 6.62793H39.4892L36.9165 14.6307L39.4055 23.3926H36.0589Z" fill="#FBAD18"/>
        <path d="M48.0855 10.1163C48.0855 9.56225 47.8554 9.35705 47.4998 9.35705H46.6841V14.5896H47.4998C47.8554 14.5896 48.0855 14.3844 48.0855 13.8509V10.1163ZM47.96 17.0725H46.6841V23.3926H43.3794V6.64844H47.9809C49.696 6.64844 51.2229 7.65391 51.2229 9.99317V13.7483C51.1811 16.067 49.6751 17.0725 47.96 17.0725Z" fill="#FBAD18"/>
    </g>
    <defs>
        <clipPath id="clip0_12301_28901">
            <rect width="58" height="30" fill="white"/>
        </clipPath>
    </defs>
</svg>
