<svg width="24" height="24" viewBox="0 0 24 24" fill="none" xmlns="http://www.w3.org/2000/svg">
<g id="Social">
<path id="Vector" fill-rule="evenodd" clip-rule="evenodd" d="M24.0006 7.50751C24.0006 7.22083 24.0006 6.93416 23.9992 6.64749C23.9979 6.40615 23.9952 6.16481 23.9886 5.92347C23.9746 5.39746 23.9432 4.86745 23.8499 4.34743C23.7552 3.81942 23.5999 3.32808 23.3559 2.84807C23.1159 2.37672 22.8025 1.94605 22.4285 1.57204C22.0545 1.19803 21.6232 0.884687 21.1518 0.644682C20.6725 0.400676 20.1811 0.246006 19.6538 0.15067C19.1338 0.0573347 18.6031 0.0260006 18.0771 0.0120003C17.8357 0.00533346 17.5944 0.00266673 17.3531 0.00133336C17.0664 0 16.7797 0 16.4931 0H7.50751C7.22083 0 6.93416 0 6.64749 0.00133336C6.40615 0.00266673 6.16481 0.00533346 5.92347 0.0120003C5.39746 0.0266673 4.86678 0.0573347 4.34677 0.151337C3.81876 0.246006 3.32808 0.401343 2.84873 0.645348C2.37739 0.885354 1.94605 1.19869 1.57204 1.5727C1.19803 1.94671 0.884687 2.37739 0.644682 2.84873C0.400676 3.32874 0.245339 3.82009 0.15067 4.3481C0.0573347 4.86811 0.0260006 5.39879 0.0120003 5.92414C0.00533346 6.16548 0.00266673 6.40682 0.00133336 6.64815C0 6.93416 0 7.22083 0 7.50751V16.4924C0 16.7791 0 17.0657 0.00133336 17.3524C0.00266673 17.5937 0.00533346 17.8351 0.0120003 18.0764C0.0260006 18.6024 0.0573347 19.1324 0.15067 19.6525C0.245339 20.1805 0.400676 20.6718 0.644682 21.1518C0.884687 21.6232 1.19803 22.0538 1.57204 22.4279C1.94605 22.8019 2.37739 23.1152 2.84873 23.3552C3.32808 23.5992 3.81942 23.7539 4.34677 23.8492C4.86678 23.9426 5.39746 23.9739 5.92347 23.9879C6.16481 23.9946 6.40615 23.9972 6.64749 23.9986C6.93416 24.0006 7.22083 23.9999 7.50751 23.9999H16.4924C16.7791 23.9999 17.0657 23.9999 17.3524 23.9986C17.5937 23.9972 17.8351 23.9946 18.0764 23.9879C18.6024 23.9739 19.1331 23.9426 19.6531 23.8492C20.1811 23.7546 20.6718 23.5992 21.1512 23.3552C21.6225 23.1152 22.0538 22.8019 22.4279 22.4279C22.8019 22.0538 23.1152 21.6232 23.3552 21.1518C23.5992 20.6718 23.7546 20.1805 23.8492 19.6525C23.9426 19.1324 23.9739 18.6018 23.9879 18.0764C23.9946 17.8351 23.9972 17.5937 23.9986 17.3524C24.0006 17.0657 23.9999 16.7791 23.9999 16.4924V7.50751H24.0006Z" fill="url(#paint0_linear_11857_30942)"/>
<path id="Vector_2" fill-rule="evenodd" clip-rule="evenodd" d="M16.9197 3.65649C16.8619 3.66181 16.348 3.75289 16.2861 3.76552L9.17256 5.20087L9.1699 5.20153C8.98442 5.24075 8.83882 5.30657 8.72647 5.40098C8.59085 5.51466 8.51572 5.67555 8.48713 5.86303C8.48115 5.90292 8.47118 5.98402 8.47118 6.10369C8.47118 6.10369 8.47118 13.3715 8.47118 15.007C8.47118 15.215 8.45456 15.4172 8.31362 15.5893C8.17267 15.7615 7.99849 15.8134 7.79439 15.8546C7.63949 15.8859 7.48459 15.9171 7.32968 15.9483C6.74198 16.0667 6.35971 16.1471 6.01334 16.2814C5.68226 16.4097 5.43428 16.5733 5.23683 16.7807C4.84525 17.1909 4.68636 17.7473 4.74087 18.2686C4.78741 18.7133 4.98752 19.1388 5.33123 19.4533C5.56326 19.666 5.85312 19.8276 6.19483 19.896C6.54918 19.9672 6.9268 19.9426 7.4786 19.8309C7.77245 19.7717 8.04769 19.6793 8.30963 19.5244C8.56891 19.3715 8.79096 19.1674 8.96447 18.9188C9.13866 18.6695 9.25101 18.3922 9.31284 18.0977C9.37666 17.7939 9.39195 17.5193 9.39195 17.2162V9.49427C9.39195 9.08075 9.50896 8.97172 9.8427 8.89062C9.8427 8.89062 15.7556 7.69793 16.0315 7.64408C16.4164 7.57028 16.5979 7.67998 16.5979 8.08352V13.3549C16.5979 13.5636 16.5959 13.775 16.4537 13.9479C16.3127 14.1201 16.1385 14.1719 15.9344 14.2132C15.7795 14.2444 15.6246 14.2757 15.4697 14.3069C14.882 14.4252 14.4998 14.5057 14.1534 14.64C13.8223 14.7683 13.5743 14.9318 13.3769 15.1393C12.9853 15.5495 12.8125 16.1059 12.867 16.6271C12.9135 17.0719 13.1276 17.4974 13.4713 17.8118C13.7033 18.0246 13.9932 18.1815 14.3349 18.2506C14.6892 18.3218 15.0669 18.2965 15.6187 18.1855C15.9125 18.1263 16.1877 18.0379 16.4497 17.883C16.709 17.7301 16.931 17.526 17.1045 17.2773C17.2787 17.028 17.3911 16.7508 17.4529 16.4563C17.5167 16.1524 17.5194 15.8779 17.5194 15.5747V4.28541C17.5207 3.87588 17.3046 3.62325 16.9197 3.65649Z" fill="white"/>
</g>
<defs>
<linearGradient id="paint0_linear_11857_30942" x1="12.0003" y1="23.9075" x2="12.0003" y2="0.517251" gradientUnits="userSpaceOnUse">
<stop stop-color="#FA233B"/>
<stop offset="1" stop-color="#FB5C74"/>
</linearGradient>
</defs>
</svg>
