<svg width="24" height="24" viewBox="0 0 24 24" fill="none" xmlns="http://www.w3.org/2000/svg">
<path fill-rule="evenodd" clip-rule="evenodd" d="M18.5556 4.33333L18.9739 4.20784L23 3V6.55556L20.863 7.25206L20 7.53333V12.0058V12.6667C20 13.32 19.7583 13.8722 19.275 14.3233C18.8459 14.7238 18.3315 14.9465 17.7317 14.9915C17.6558 14.9972 17.5786 15 17.5 15C16.8 15 16.2083 14.7744 15.725 14.3233C15.7045 14.3042 15.6844 14.2849 15.6648 14.2654C15.2216 13.8252 15 13.2923 15 12.6667C15 12.0133 15.2417 11.4611 15.725 11.01C16.2083 10.5589 16.8 10.3333 17.5 10.3333C17.7833 10.3333 18.05 10.3761 18.3 10.4617C18.4083 10.4987 18.4707 10.5213 18.5067 10.535C18.5538 10.5529 18.5556 10.5556 18.5556 10.5556V10.4281V6.73653V4.33333ZM15.5 3C15.8619 3 16.2147 3.03341 16.5556 3.09739V5.14863C16.2252 5.05167 15.8712 5 15.5 5C13.96 5 12.46 5.99 11.94 7.36H10.07C9.54 5.99 8.04 5 6.5 5C4.5 5 3 6.5 3 8.5C3 11.39 6.14 14.24 10.9 18.55L11 18.65L11.1 18.55C12.2472 17.5112 13.3004 16.5573 14.2381 15.6671C14.2779 15.7071 14.3187 15.7466 14.3604 15.7854C14.8455 16.2383 15.3956 16.5618 15.989 16.7605C14.942 17.7703 13.7578 18.8441 12.4627 20.0185L12.45 20.03L11 21.35L9.55 20.04L9.51052 20.0041C4.38263 15.3442 1 12.2703 1 8.5C1 5.42 3.42 3 6.5 3C8.24 3 9.91 3.81 11 5.09C12.09 3.81 13.76 3 15.5 3Z" fill="currentColor"/>
</svg>
