<svg width="24" height="24" viewBox="0 0 24 24" fill="none" xmlns="http://www.w3.org/2000/svg">
<path fill-rule="evenodd" clip-rule="evenodd" d="M7.94961 11.8007L10.7628 2H13.2373L16.0505 11.8007L18.9781 22H16.1364L12.0001 17.1966L7.86368 22H5.02197L7.94961 11.8007ZM8.04194 18.728L10.6804 15.6641L9.36116 14.1321L8.04194 18.728ZM15.9582 18.728L14.6389 14.1321L13.3197 15.6641L15.9582 18.728ZM12.0001 14.1316L13.9791 11.8334L12.0001 4.9387L10.021 11.8334L12.0001 14.1316ZM3.45081 4C1.31682 6.16629 0 9.13981 0 12.4209C0 13.8978 0.266792 15.3123 0.75481 16.619L2.61286 15.8757C2.21645 14.799 2 13.6352 2 12.4209C2 9.70741 3.08076 7.24635 4.83531 5.44469L3.45081 4ZM6.22015 6.88975C4.84489 8.32646 4 10.275 4 12.4209C4 13.3727 4.16622 14.2857 4.47122 15.1324L6.33018 14.3888C6.11624 13.7723 6 13.1102 6 12.4209C6 10.8426 6.60938 9.40668 7.60568 8.33552L6.22015 6.88975ZM20.5492 4C22.6832 6.16629 24 9.13981 24 12.4209C24 13.8978 23.7332 15.3123 23.2452 16.619L21.3871 15.8757C21.7836 14.799 22 13.6352 22 12.4209C22 9.70741 20.9192 7.24635 19.1647 5.44469L20.5492 4ZM17.7798 6.88975C19.1551 8.32646 20 10.275 20 12.4209C20 13.3727 19.8338 14.2857 19.5288 15.1324L17.6698 14.3888C17.8838 13.7723 18 13.1102 18 12.4209C18 10.8426 17.3906 9.40668 16.3943 8.33552L17.7798 6.88975Z" fill="currentColor"/>
</svg>
