<svg width="24" height="24" viewBox="0 0 24 24" fill="none" xmlns="http://www.w3.org/2000/svg">
<path fill-rule="evenodd" clip-rule="evenodd" d="M2 20V4H14V20H2ZM0 3C0 2.44772 0.447715 2 1 2H15C15.5523 2 16 2.44772 16 3V21C16 21.5523 15.5523 22 15 22H1C0.447715 22 0 21.5523 0 21V3ZM6.5 18C7.2 18 7.79167 17.7744 8.275 17.3233C8.75833 16.8722 9 16.32 9 15.6667V10.5333L12 9.55556V6L7.55556 7.33333V13.5556C7.55556 13.5556 7.55 13.5472 7.3 13.4617C7.05 13.3761 6.78333 13.3333 6.5 13.3333C5.8 13.3333 5.20833 13.5589 4.725 14.01C4.24167 14.4611 4 15.0133 4 15.6667C4 16.32 4.24167 16.8722 4.725 17.3233C5.20833 17.7744 5.8 18 6.5 18ZM22 22V2H24V22H22ZM18 2V22H20V2H18Z" fill="currentColor"/>
</svg>
